STARTFONT 2.1
COMMENT
COMMENT Converted from OpenType font "BeVietnam-Bold.ttf" by "otf2bdf 3.0".
COMMENT
FONT -FreeType-Be Vietnam-Bold-R-Normal--33-240-100-100-P-166-ISO10646-1
SIZE 24 100 100
FONTBOUNDINGBOX 53 47 -16 -9
STARTPROPERTIES 19
FOUNDRY "FreeType"
FAMILY_NAME "Be Vietnam"
WEIGHT_NAME "Bold"
SLANT "R"
SETWIDTH_NAME "Normal"
ADD_STYLE_NAME ""
PIXEL_SIZE 33
POINT_SIZE 240
RESOLUTION_X 100
RESOLUTION_Y 100
SPACING "P"
AVERAGE_WIDTH 166
CHARSET_REGISTRY "ISO10646"
CHARSET_ENCODING "1"
FONT_ASCENT 39
FONT_DESCENT 8
COPYRIGHT "Copyright 2019 The Bevietnam Project Authors (https://github.com/bettergui/beVietnam)"
_OTF_FONTFILE "BeVietnam-Bold.ttf"
_OTF_PSNAME "BeVietnam-Bold"
ENDPROPERTIES
CHARS 445
STARTCHAR 000D
ENCODING 13
SWIDTH 600 0
DWIDTH 20 0
BBX 0 0 0 0
BITMAP
ENDCHAR
STARTCHAR 0020
ENCODING 32
SWIDTH 210 0
DWIDTH 7 0
BBX 0 0 0 0
BITMAP
ENDCHAR
STARTCHAR 0021
ENCODING 33
SWIDTH 270 0
DWIDTH 9 0
BBX 5 24 2 0
BITMAP
F8
F8
F8
F8
F8
F8
F8
78
78
78
78
78
70
70
70
70
00
00
00
30
78
F8
F8
70
ENDCHAR
STARTCHAR 0022
ENCODING 34
SWIDTH 510 0
DWIDTH 17 0
BBX 14 10 2 16
BITMAP
3010
7070
C060
C0C0
C0C0
F0F8
F8F8
F8FC
F8F8
7070
ENDCHAR
STARTCHAR 0023
ENCODING 35
SWIDTH 870 0
DWIDTH 29 0
BBX 24 23 3 0
BITMAP
00F078
00F070
00F0F0
01E0F0
01E0F0
01E0F0
3FFFFF
3FFFFF
3FFFFF
03C1E0
03C1C0
03C3C0
0783C0
0783C0
FFFFFC
FFFFFC
FFFFFC
0F0780
0F0780
0F0780
0F0F00
0E0F00
1E0F00
ENDCHAR
STARTCHAR 0024
ENCODING 36
SWIDTH 570 0
DWIDTH 19 0
BBX 18 29 1 -3
BITMAP
00C000
00C000
00C000
07F800
1FFE00
3FFF00
3FFF00
7CCF80
7CCF80
78C780
7CC000
7EC000
3FC000
3FF800
0FFE00
03FF00
00FF80
00CFC0
F8C7C0
F8C7C0
7CC7C0
7ECFC0
7FFF80
3FFF00
1FFE00
07FC00
00C000
00C000
00C000
ENDCHAR
STARTCHAR 0025
ENCODING 37
SWIDTH 780 0
DWIDTH 26 0
BBX 24 24 1 0
BITMAP
0C0000
3F00F0
7F81E0
7381E0
F383C0
E383C0
F38780
7F8780
7F0F00
1E0F00
001E00
001E00
003C00
003C00
007800
00787E
00F0FE
00F0E7
01E1E7
01E1E7
03C1E7
03C0E7
0780FE
07007E
ENDCHAR
STARTCHAR 0026
ENCODING 38
SWIDTH 660 0
DWIDTH 22 0
BBX 21 24 1 0
BITMAP
00F000
07FE00
0FFF00
0FFF80
1F9F80
1F0F80
1E0780
1F0000
1F0000
0F8000
0FC000
07E3E0
0FE3C0
3FF7C0
7EFF80
787F00
F83F00
F81F00
F81F80
F83FC0
7FFFC0
7FFBE0
3FF1F0
1FC0F8
ENDCHAR
STARTCHAR 0027
ENCODING 39
SWIDTH 270 0
DWIDTH 9 0
BBX 6 9 2 17
BITMAP
78
FC
FC
7C
1C
0C
0C
18
30
ENDCHAR
STARTCHAR 0028
ENCODING 40
SWIDTH 480 0
DWIDTH 16 0
BBX 10 34 3 -7
BITMAP
00C0
01C0
0380
0780
0F00
0E00
1E00
1E00
3C00
3C00
7C00
7C00
7800
7800
7800
7800
F800
F800
7800
7800
7800
7800
7800
7C00
3C00
3C00
3E00
1E00
1E00
0F00
0700
0380
01C0
00C0
ENDCHAR
STARTCHAR 0029
ENCODING 41
SWIDTH 540 0
DWIDTH 18 0
BBX 10 34 5 -7
BITMAP
4000
E000
7000
3800
3C00
1E00
1E00
0F00
0F00
0F80
0780
0780
0780
07C0
07C0
07C0
07C0
07C0
07C0
07C0
07C0
0780
0780
0780
0F80
0F00
0F00
1E00
1E00
1C00
3C00
7800
7000
C000
ENDCHAR
STARTCHAR 002A
ENCODING 42
SWIDTH 510 0
DWIDTH 17 0
BBX 11 12 3 13
BITMAP
0E00
0E00
EE60
FFE0
7FC0
1F00
3F80
FFE0
EEE0
0E00
0E00
0E00
ENDCHAR
STARTCHAR 002B
ENCODING 43
SWIDTH 570 0
DWIDTH 19 0
BBX 14 14 3 3
BITMAP
0780
0780
0780
0780
0780
FFFC
FFFC
FFFC
FFFC
0780
0780
0780
0780
0780
ENDCHAR
STARTCHAR 002C
ENCODING 44
SWIDTH 300 0
DWIDTH 10 0
BBX 6 10 2 -6
BITMAP
78
FC
FC
7C
1C
0C
0C
18
38
20
ENDCHAR
STARTCHAR 002D
ENCODING 45
SWIDTH 570 0
DWIDTH 19 0
BBX 12 3 4 9
BITMAP
FFF0
FFF0
FFF0
ENDCHAR
STARTCHAR 002E
ENCODING 46
SWIDTH 300 0
DWIDTH 10 0
BBX 5 5 3 0
BITMAP
70
F8
F8
F8
F0
ENDCHAR
STARTCHAR 002F
ENCODING 47
SWIDTH 510 0
DWIDTH 17 0
BBX 16 32 1 -6
BITMAP
001F
001E
001E
003E
003C
003C
007C
0078
00F8
00F8
00F0
01F0
01E0
01E0
03E0
03C0
03C0
07C0
0780
0780
0F80
0F00
0F00
1F00
1E00
3E00
3C00
3C00
7C00
7800
7800
F800
ENDCHAR
STARTCHAR 0030
ENCODING 48
SWIDTH 600 0
DWIDTH 20 0
BBX 18 24 1 0
BITMAP
01F000
0FFC00
1FFF00
3FFF00
3F1F80
7E0F80
7C0FC0
7C07C0
FC07C0
FC07C0
FC07C0
FC07C0
FC07C0
FC07C0
FC07C0
FC07C0
7C07C0
7C07C0
7C0FC0
7E0F80
3FFF80
1FFF00
1FFE00
07FC00
ENDCHAR
STARTCHAR 0031
ENCODING 49
SWIDTH 510 0
DWIDTH 17 0
BBX 14 23 2 0
BITMAP
07C0
1FC0
3FC0
7FC0
FFC0
FBC0
F3C0
E3C0
C3C0
83C0
03C0
03C0
03C0
03C0
03C0
03C0
03C0
03C0
03C0
7FFC
7FFC
7FFC
7FFC
ENDCHAR
STARTCHAR 0032
ENCODING 50
SWIDTH 570 0
DWIDTH 19 0
BBX 16 24 2 0
BITMAP
07E0
1FF8
3FFC
7FFE
7C3E
F81F
F81F
F01F
001F
001F
003E
003E
007C
00F8
03F0
07E0
0FC0
1F80
3F00
7C00
FFFF
FFFF
FFFF
FFFF
ENDCHAR
STARTCHAR 0033
ENCODING 51
SWIDTH 570 0
DWIDTH 19 0
BBX 17 24 1 0
BITMAP
03F000
0FFC00
1FFE00
3FFF00
7E1F80
7C0F80
780F80
000F80
000F80
001F00
01FF00
01FC00
01FE00
01FF00
000F80
000780
000780
F80780
F80F80
7C0F80
7FFF80
3FFF00
1FFE00
07F800
ENDCHAR
STARTCHAR 0034
ENCODING 52
SWIDTH 600 0
DWIDTH 20 0
BBX 18 23 1 0
BITMAP
007E00
00FE00
01FE00
01FE00
03FE00
03DE00
07DE00
0F9E00
0F1E00
1F1E00
3E1E00
3C1E00
7C1E00
F81E00
FFFFC0
FFFFC0
FFFFC0
003E00
003E00
003E00
003E00
003E00
003E00
ENDCHAR
STARTCHAR 0035
ENCODING 53
SWIDTH 570 0
DWIDTH 19 0
BBX 16 23 2 0
BITMAP
7FFE
FFFE
FFFE
FFFE
F000
F000
F000
F0E0
F7F8
FFFE
FFFE
FC3F
F81F
000F
000F
000F
F00F
F81F
FC3F
7FFE
3FFE
1FFC
0FF0
ENDCHAR
STARTCHAR 0036
ENCODING 54
SWIDTH 570 0
DWIDTH 19 0
BBX 17 23 1 0
BITMAP
01F000
03E000
03C000
07C000
078000
0F0000
1F0000
1E0000
3DFC00
3FFE00
7FFF00
7E1F00
7C0F80
F80F80
F80780
F80780
F80780
780F80
7C0F80
3F7F00
3FFF00
1FFE00
07F800
ENDCHAR
STARTCHAR 0037
ENCODING 55
SWIDTH 510 0
DWIDTH 17 0
BBX 16 23 1 0
BITMAP
FFFF
FFFF
FFFF
FFFF
001E
003E
003E
003C
007C
0078
00F8
00F0
01F0
01E0
03E0
03C0
07C0
07C0
0F80
0F80
1F00
1F00
3E00
ENDCHAR
STARTCHAR 0038
ENCODING 56
SWIDTH 600 0
DWIDTH 20 0
BBX 17 25 2 -1
BITMAP
03E000
1FF800
3FFE00
7FFE00
7C3F00
F81F00
F80F00
F80F00
780F00
7C1F00
3F7E00
1FFC00
1FFC00
7E7E00
F81F00
F80F80
F00F80
F00F80
F80F80
F81F80
FE3F00
7FFF00
3FFE00
1FF800
018000
ENDCHAR
STARTCHAR 0039
ENCODING 57
SWIDTH 570 0
DWIDTH 19 0
BBX 17 24 1 0
BITMAP
03E000
0FFC00
1FFE00
3FFF00
7E1F00
7C0F80
780780
F80780
F80780
F80780
780F80
7C0F80
7FFF80
3FFF00
1FEF00
079E00
003E00
003C00
007C00
00F800
01F000
01F000
03E000
07C000
ENDCHAR
STARTCHAR 003A
ENCODING 58
SWIDTH 330 0
DWIDTH 11 0
BBX 5 18 3 0
BITMAP
20
F0
F8
F8
F0
60
00
00
00
00
00
00
00
70
F8
F8
F8
F0
ENDCHAR
STARTCHAR 003B
ENCODING 59
SWIDTH 330 0
DWIDTH 11 0
BBX 6 24 3 -6
BITMAP
10
78
FC
FC
78
30
00
00
00
00
00
00
00
00
78
FC
FC
7C
1C
0C
0C
18
30
60
ENDCHAR
STARTCHAR 003C
ENCODING 60
SWIDTH 570 0
DWIDTH 19 0
BBX 13 16 3 3
BITMAP
0008
0038
00F8
03F8
0FF0
3FC0
7F00
FC00
F800
FF00
3FC0
0FF0
03F8
01F8
0078
0018
ENDCHAR
STARTCHAR 003D
ENCODING 61
SWIDTH 690 0
DWIDTH 23 0
BBX 16 11 4 5
BITMAP
FFFF
FFFF
FFFF
FFFF
0000
0000
0000
0000
FFFF
FFFF
FFFF
ENDCHAR
STARTCHAR 003E
ENCODING 62
SWIDTH 570 0
DWIDTH 19 0
BBX 13 16 3 3
BITMAP
8000
E000
F800
FE00
7F80
1FE0
07F8
01F8
00F8
03F8
0FF0
3FC0
FF00
FC00
F000
C000
ENDCHAR
STARTCHAR 003F
ENCODING 63
SWIDTH 570 0
DWIDTH 19 0
BBX 16 24 2 0
BITMAP
07C0
1FF8
3FFC
7FFE
FEFE
F83F
F81F
F01F
001F
003E
007E
007C
00F8
01F0
03E0
07C0
07C0
0000
0000
0180
07C0
07C0
07C0
0380
ENDCHAR
STARTCHAR 0040
ENCODING 64
SWIDTH 990 0
DWIDTH 33 0
BBX 29 30 2 -6
BITMAP
000F8000
007FF800
01FFFE00
07FFFF80
0FC00FC0
1F0003E0
1E0001E0
3C0000F0
381F7870
787FF878
707FF838
70F8F838
F0F07838
F0F07838
F0E07838
F0E07838
F0F07838
F0F07878
70F8FC70
787FFFF0
783F9FE0
3C0E0700
3C000000
1E000000
1F800000
0FE00000
03FFFE00
01FFFE00
007FFE00
0003FE00
ENDCHAR
STARTCHAR 0041
ENCODING 65
SWIDTH 660 0
DWIDTH 22 0
BBX 21 23 1 0
BITMAP
00F800
00F800
01FC00
01FC00
03FC00
03FE00
03DE00
07DE00
079F00
078F00
0F8F00
0F0F80
0F0780
1F0780
1FFFC0
3FFFC0
3FFFE0
3C03E0
7C01E0
7C01F0
7801F0
F800F0
F800F8
ENDCHAR
STARTCHAR 0042
ENCODING 66
SWIDTH 600 0
DWIDTH 20 0
BBX 18 23 2 0
BITMAP
FFF800
FFFE00
FFFF00
F03F00
F01F00
F00F00
F00F00
F00F00
F01F00
FFFE00
FFF800
FFFE00
FFFF00
F00F80
F00780
F007C0
F007C0
F007C0
F00F80
FFFF80
FFFF00
FFFE00
FFFC00
ENDCHAR
STARTCHAR 0043
ENCODING 67
SWIDTH 690 0
DWIDTH 23 0
BBX 21 24 1 0
BITMAP
00FC00
03FF00
0FFFC0
1FFFE0
1F87E0
3F01F0
3E00F0
7C00F8
7C0078
780000
F80000
F80000
F80000
F80000
780000
7C0000
7C00F8
7C00F8
3E01F0
3F03F0
1FFFE0
0FFFC0
07FF80
01FE00
ENDCHAR
STARTCHAR 0044
ENCODING 68
SWIDTH 660 0
DWIDTH 22 0
BBX 19 23 2 0
BITMAP
FFF800
FFFE00
FFFF00
FFFF80
F01FC0
F007C0
F003E0
F003E0
F003E0
F003E0
F003E0
F003E0
F003E0
F003E0
F003E0
F003E0
F007E0
F00FC0
F03FC0
FFFF80
FFFF00
FFFE00
FFF000
ENDCHAR
STARTCHAR 0045
ENCODING 69
SWIDTH 540 0
DWIDTH 18 0
BBX 15 23 2 0
BITMAP
FFFE
FFFE
FFFE
FFFE
F800
F800
F800
F800
F800
FFFC
FFFC
FFFC
FFFC
F800
F800
F800
F800
F800
F800
FFFE
FFFE
FFFE
FFFE
ENDCHAR
STARTCHAR 0046
ENCODING 70
SWIDTH 510 0
DWIDTH 17 0
BBX 15 23 2 0
BITMAP
FFFE
FFFE
FFFE
FFFE
F800
F800
F800
F800
F800
FFFC
FFFC
FFFC
FFFC
F800
F800
F800
F800
F800
F800
F800
F800
F800
F800
ENDCHAR
STARTCHAR 0047
ENCODING 71
SWIDTH 690 0
DWIDTH 23 0
BBX 21 24 1 0
BITMAP
007C00
03FF00
0FFFC0
1FFFE0
1F87E0
3F01F0
3E01F0
7C00F8
7C0000
780000
780000
F80FF8
F80FF8
780FF8
780FF8
780078
7C00F8
7C00F8
3E00F8
3F01F8
1FEFF8
0FFFB8
07FF38
01FC38
ENDCHAR
STARTCHAR 0048
ENCODING 72
SWIDTH 660 0
DWIDTH 22 0
BBX 19 23 2 0
BITMAP
F803E0
F803E0
F803E0
F803E0
F803E0
F803E0
F803E0
F803E0
F803E0
FFFFE0
FFFFE0
FFFFE0
FFFFE0
F803E0
F803E0
F803E0
F803E0
F803E0
F803E0
F803E0
F803E0
F803E0
F803E0
ENDCHAR
STARTCHAR 0049
ENCODING 73
SWIDTH 240 0
DWIDTH 8 0
BBX 5 23 2 0
BITMAP
F8
F8
F8
F8
F8
F8
F8
F8
F8
F8
F8
F8
F8
F8
F8
F8
F8
F8
F8
F8
F8
F8
F8
ENDCHAR
STARTCHAR 004A
ENCODING 74
SWIDTH 360 0
DWIDTH 12 0
BBX 9 23 1 0
BITMAP
0F80
0F80
0F80
0F80
0F80
0F80
0F80
0F80
0F80
0F80
0F80
0F80
0F80
0F80
0F80
0F80
0F80
0F80
0F80
1F80
FF00
FF00
FC00
ENDCHAR
STARTCHAR 004B
ENCODING 75
SWIDTH 630 0
DWIDTH 21 0
BBX 18 23 2 0
BITMAP
F00FC0
F01F80
F03F00
F07E00
F07C00
F0F800
F1F000
F3E000
F7C000
FFC000
FFC000
FFE000
FFE000
FDF000
F8F800
F0F800
F07C00
F03E00
F03E00
F01F00
F01F80
F00F80
F007C0
ENDCHAR
STARTCHAR 004C
ENCODING 76
SWIDTH 510 0
DWIDTH 17 0
BBX 15 23 2 0
BITMAP
F800
F800
F800
F800
F800
F800
F800
F800
F800
F800
F800
F800
F800
F800
F800
F800
F800
F800
F800
FFFE
FFFE
FFFE
FFFE
ENDCHAR
STARTCHAR 004D
ENCODING 77
SWIDTH 810 0
DWIDTH 27 0
BBX 24 23 2 0
BITMAP
FE007F
FE007F
FF00FF
FF00FF
FF81FF
FF81FF
F781EF
F7C3EF
F7C3EF
F3C3CF
F3E7CF
F3E7CF
F1E78F
F1FF8F
F1FF0F
F0FF0F
F0FF0F
F07E0F
F07E0F
F07E0F
F03C0F
F03C0F
F03C0F
ENDCHAR
STARTCHAR 004E
ENCODING 78
SWIDTH 690 0
DWIDTH 23 0
BBX 19 23 2 0
BITMAP
FC01E0
FC01E0
FE01E0
FF01E0
FF01E0
FF81E0
FF81E0
FFC1E0
FFC1E0
FBE1E0
F9F1E0
F9F1E0
F8F9E0
F8F9E0
F87DE0
F83FE0
F83FE0
F81FE0
F81FE0
F80FE0
F807E0
F807E0
F803E0
ENDCHAR
STARTCHAR 004F
ENCODING 79
SWIDTH 720 0
DWIDTH 24 0
BBX 22 24 1 0
BITMAP
00F800
03FF00
0FFFC0
1FFFE0
1FCFF0
3F03F0
7E01F8
7C00F8
7C00F8
7C00F8
F8007C
F8007C
F8007C
F8007C
F8007C
7C00F8
7C00F8
7E00F8
3E01F0
3F03F0
1FFFE0
0FFFC0
07FF80
01FE00
ENDCHAR
STARTCHAR 0050
ENCODING 80
SWIDTH 570 0
DWIDTH 19 0
BBX 17 23 2 0
BITMAP
FFF800
FFFC00
FFFE00
FFFF00
F01F00
F00F80
F00F80
F00F80
F00F80
F00F80
F01F00
F03F00
FFFF00
FFFE00
FFF800
FF8000
F00000
F00000
F00000
F00000
F00000
F00000
F00000
ENDCHAR
STARTCHAR 0051
ENCODING 81
SWIDTH 720 0
DWIDTH 24 0
BBX 22 25 1 -1
BITMAP
00F800
03FF00
0FFFC0
1FFFE0
1FCFF0
3F03F0
7E01F8
7C00F8
7C00F8
7C00F8
F8007C
F8007C
F8007C
F8007C
F8007C
7C7CF8
7C3CF8
7E1EF8
3E0FF0
3F0FF0
1FFFE0
0FFFC0
07FFE0
01FFF0
0000F8
ENDCHAR
STARTCHAR 0052
ENCODING 82
SWIDTH 600 0
DWIDTH 20 0
BBX 17 23 2 0
BITMAP
FFF800
FFFC00
FFFE00
FFFF00
F81F00
F80F80
F80F80
F80F80
F80F80
F80F80
F83F00
FFFF00
FFFE00
FFF800
FFF000
F8F800
F87C00
F87C00
F83E00
F83E00
F81F00
F80F00
F80F80
ENDCHAR
STARTCHAR 0053
ENCODING 83
SWIDTH 600 0
DWIDTH 20 0
BBX 18 24 1 0
BITMAP
01F000
0FFC00
1FFE00
3FFF00
7E1F80
7C0F80
7C0FC0
7C0FC0
7C0000
7F0000
3FF000
1FFC00
0FFF00
03FF80
001F80
000FC0
FC07C0
FC07C0
7C07C0
7E0F80
3FFF80
3FFF00
1FFE00
07FC00
ENDCHAR
STARTCHAR 0054
ENCODING 84
SWIDTH 570 0
DWIDTH 19 0
BBX 18 23 1 0
BITMAP
FFFFC0
FFFFC0
FFFFC0
FFFFC0
01E000
01E000
01E000
01E000
01E000
01E000
01E000
01E000
01E000
01E000
01E000
01E000
01E000
01E000
01E000
01E000
01E000
01E000
01E000
ENDCHAR
STARTCHAR 0055
ENCODING 85
SWIDTH 660 0
DWIDTH 22 0
BBX 19 23 2 0
BITMAP
F003E0
F003E0
F003E0
F003E0
F003E0
F003E0
F003E0
F003E0
F003E0
F003E0
F003E0
F003E0
F003E0
F003E0
F803E0
F803E0
F803E0
FC07C0
7E0FC0
7FFF80
3FFF80
1FFE00
07FC00
ENDCHAR
STARTCHAR 0056
ENCODING 86
SWIDTH 630 0
DWIDTH 21 0
BBX 20 23 1 0
BITMAP
F000F0
F801F0
F801F0
7801E0
7C03E0
7C03E0
3C03C0
3C07C0
3E07C0
1E0780
1E0F80
1F0F80
0F0F00
0F0F00
0F9F00
079E00
079E00
07FE00
07FC00
03FC00
03FC00
03F800
01F800
ENDCHAR
STARTCHAR 0057
ENCODING 87
SWIDTH 990 0
DWIDTH 33 0
BBX 32 23 1 0
BITMAP
F007C01F
F007C01E
F807C01E
F80FE03E
780FE03E
780FE03C
7C1FF03C
7C1FF07C
3C1EF07C
3C1EF878
3E3EF878
3E3C78F8
1E3C7CF8
1E7C7CF0
1E7C3CF0
1F783DF0
0FF83FF0
0FF81FE0
0FF01FE0
0FF01FE0
07F01FC0
07E00FC0
07E00FC0
ENDCHAR
STARTCHAR 0058
ENCODING 88
SWIDTH 660 0
DWIDTH 22 0
BBX 20 23 1 0
BITMAP
F801F0
7C03F0
3E03E0
3E07C0
1F07C0
0F8F80
0F9F00
07DF00
03FE00
03FC00
01FC00
01F800
01FC00
03FC00
07FE00
07DF00
0F8F00
1F0F80
1F07C0
3E07C0
3E03E0
7C01F0
F801F0
ENDCHAR
STARTCHAR 0059
ENCODING 89
SWIDTH 630 0
DWIDTH 21 0
BBX 19 23 1 0
BITMAP
F803E0
7C03E0
7C03C0
3C07C0
3E0780
1E0F80
1F0F00
0F1F00
0F9E00
07BE00
07FC00
03FC00
03F800
01F800
01F000
01F000
01F000
01F000
01F000
01F000
01F000
01F000
01F000
ENDCHAR
STARTCHAR 005A
ENCODING 90
SWIDTH 600 0
DWIDTH 20 0
BBX 17 23 2 0
BITMAP
FFFF80
FFFF80
FFFF80
FFFF80
001F00
003F00
007E00
007C00
00F800
01F000
03F000
07E000
07C000
0F8000
1F0000
3F0000
7E0000
7C0000
F80000
FFFF80
FFFF80
FFFF80
FFFF80
ENDCHAR
STARTCHAR 005B
ENCODING 91
SWIDTH 450 0
DWIDTH 15 0
BBX 10 35 3 -7
BITMAP
FFC0
FFC0
FFC0
FFC0
E000
E000
E000
E000
E000
E000
E000
E000
E000
E000
E000
E000
E000
E000
E000
E000
E000
E000
E000
E000
E000
E000
E000
E000
E000
E000
E000
FFC0
FFC0
FFC0
FFC0
ENDCHAR
STARTCHAR 005C
ENCODING 92
SWIDTH 510 0
DWIDTH 17 0
BBX 16 32 1 -6
BITMAP
F800
7800
7800
7C00
3C00
3C00
3E00
1E00
1E00
1F00
0F00
0F00
0F80
0780
0780
07C0
03C0
03E0
01E0
01E0
01F0
00F0
00F0
00F8
0078
0078
007C
003C
003C
003E
001E
001F
ENDCHAR
STARTCHAR 005D
ENCODING 93
SWIDTH 450 0
DWIDTH 15 0
BBX 11 35 2 -7
BITMAP
FFE0
FFE0
FFE0
FFE0
01E0
01E0
01E0
01E0
01E0
01E0
01E0
01E0
01E0
01E0
01E0
01E0
01E0
01E0
01E0
01E0
01E0
01E0
01E0
01E0
01E0
01E0
01E0
01E0
01E0
01E0
01E0
FFE0
FFE0
FFE0
FFE0
ENDCHAR
STARTCHAR 005E
ENCODING 94
SWIDTH 420 0
DWIDTH 14 0
BBX 12 6 1 19
BITMAP
1F80
3FC0
7FC0
79E0
F1F0
F0F0
ENDCHAR
STARTCHAR 005F
ENCODING 95
SWIDTH 690 0
DWIDTH 23 0
BBX 17 4 3 0
BITMAP
FFFF80
FFFF80
FFFF80
FFFF80
ENDCHAR
STARTCHAR 0060
ENCODING 96
SWIDTH 270 0
DWIDTH 9 0
BBX 7 6 1 20
BITMAP
F8
78
3C
3C
1E
0E
ENDCHAR
STARTCHAR 0061
ENCODING 97
SWIDTH 600 0
DWIDTH 20 0
BBX 17 18 1 0
BITMAP
07C780
1FE780
3FF780
7FFF80
7E1F80
7C0F80
F80F80
F80780
F80780
F80780
F80780
F80F80
7C0F80
7C1F80
7FFF80
3FF780
1FE780
0FC780
ENDCHAR
STARTCHAR 0062
ENCODING 98
SWIDTH 600 0
DWIDTH 20 0
BBX 17 25 2 0
BITMAP
F80000
F80000
F80000
F80000
F80000
F80000
F80000
F9F800
FBFC00
FFFE00
FFFF00
FC1F00
F80F80
F80F80
F80F80
F80F80
F80F80
F80F80
F80F80
F80F80
FC1F00
FF7F00
FFFE00
FBFE00
F9F800
ENDCHAR
STARTCHAR 0063
ENCODING 99
SWIDTH 570 0
DWIDTH 19 0
BBX 17 18 1 0
BITMAP
03F000
0FFC00
1FFE00
3FFF00
7E1F00
7C0F00
780F80
F80000
F80000
F80000
F80000
780F80
7C0F80
7C1F00
3FFF00
3FFE00
1FFC00
07F800
ENDCHAR
STARTCHAR 0064
ENCODING 100
SWIDTH 600 0
DWIDTH 20 0
BBX 18 25 1 0
BITMAP
0007C0
0007C0
0007C0
0007C0
0007C0
0007C0
0007C0
07C7C0
1FE7C0
3FF7C0
7FFFC0
7E1FC0
7C0FC0
780FC0
F807C0
F807C0
F807C0
F807C0
F807C0
7C0FC0
7C0FC0
7FFFC0
3FF7C0
1FF7C0
0FC7C0
ENDCHAR
STARTCHAR 0065
ENCODING 101
SWIDTH 570 0
DWIDTH 19 0
BBX 17 18 1 0
BITMAP
03F000
0FFC00
1FFE00
3F3F00
7C0F00
780F00
780F80
FFFF80
FFFF80
FFFF80
F80000
780000
780F80
7C1F00
3F7F00
3FFE00
1FFC00
07F800
ENDCHAR
STARTCHAR 0066
ENCODING 102
SWIDTH 360 0
DWIDTH 12 0
BBX 11 25 1 0
BITMAP
03C0
0FE0
1FE0
1FE0
1E00
3E00
3E00
FFE0
FFE0
FFE0
FFE0
3E00
3E00
3E00
3E00
3E00
3E00
3E00
3E00
3E00
3E00
3E00
3E00
3E00
3E00
ENDCHAR
STARTCHAR 0067
ENCODING 103
SWIDTH 600 0
DWIDTH 20 0
BBX 18 25 1 -7
BITMAP
07C7C0
1FE7C0
3FF7C0
3FFFC0
7E1FC0
7C0FC0
7807C0
F807C0
F807C0
F807C0
F807C0
7C0FC0
7C0FC0
7E1FC0
3FFFC0
3FF7C0
1FE7C0
07C7C0
000780
000F80
000F80
03FF80
03FF00
03FE00
03FC00
ENDCHAR
STARTCHAR 0068
ENCODING 104
SWIDTH 600 0
DWIDTH 20 0
BBX 16 25 2 0
BITMAP
F800
F800
F800
F800
F800
F800
F800
F9F8
FBFC
FFFE
FFFE
FC3F
F81F
F81F
F80F
F80F
F80F
F80F
F80F
F80F
F80F
F80F
F80F
F80F
F80F
ENDCHAR
STARTCHAR 0069
ENCODING 105
SWIDTH 270 0
DWIDTH 9 0
BBX 5 26 2 0
BITMAP
30
F8
F8
F8
78
00
00
00
F8
F8
F8
F8
F8
F8
F8
F8
F8
F8
F8
F8
F8
F8
F8
F8
F8
F8
ENDCHAR
STARTCHAR 006A
ENCODING 106
SWIDTH 270 0
DWIDTH 9 0
BBX 9 34 -1 -8
BITMAP
0600
0F00
1F80
1F00
0F00
0000
0000
0000
1F00
1F00
1F00
1F00
1F00
1F00
1F00
1F00
1F00
1F00
1F00
1F00
1F00
1F00
1F00
1F00
1F00
1F00
1F00
1F00
1F00
1F00
FF00
FE00
FE00
2000
ENDCHAR
STARTCHAR 006B
ENCODING 107
SWIDTH 540 0
DWIDTH 18 0
BBX 15 25 2 0
BITMAP
F800
F800
F800
F800
F800
F800
F800
F83E
F87E
F87C
F8F8
F9F0
FBE0
FFE0
FFC0
FF80
FFC0
FBC0
FBE0
F9F0
F8F0
F8F8
F87C
F87E
F83E
ENDCHAR
STARTCHAR 006C
ENCODING 108
SWIDTH 330 0
DWIDTH 11 0
BBX 8 25 2 0
BITMAP
F8
F8
F8
F8
F8
F8
F8
F8
F8
F8
F8
F8
F8
F8
F8
F8
F8
F8
F8
F8
F8
FC
FF
7F
3F
ENDCHAR
STARTCHAR 006D
ENCODING 109
SWIDTH 900 0
DWIDTH 30 0
BBX 27 18 2 0
BITMAP
F9F03E00
FBFC7F80
FFFCFFC0
FFFFFFC0
FC3F87C0
F81F03E0
F81F03E0
F81F03E0
F81F03E0
F81F03E0
F81F03E0
F81F03E0
F81F03E0
F81F03E0
F81F03E0
F81F03E0
F81F03E0
F81F03E0
ENDCHAR
STARTCHAR 006E
ENCODING 110
SWIDTH 600 0
DWIDTH 20 0
BBX 16 18 2 0
BITMAP
F9F8
FBFC
FFFE
FFFE
FC3F
F81F
F81F
F80F
F80F
F80F
F80F
F80F
F80F
F80F
F80F
F80F
F80F
F80F
ENDCHAR
STARTCHAR 006F
ENCODING 111
SWIDTH 570 0
DWIDTH 19 0
BBX 17 18 1 0
BITMAP
03F000
0FFC00
1FFE00
3FFF00
7E1F00
7C0F80
780F80
F80780
F80780
F80780
F80780
780F80
7C0F80
7C1F00
3FFF00
3FFE00
1FFC00
07F800
ENDCHAR
STARTCHAR 0070
ENCODING 112
SWIDTH 600 0
DWIDTH 20 0
BBX 17 25 2 -7
BITMAP
F9F800
FBFC00
FFFE00
FFFF00
FC1F00
F80F80
F80F80
F80F80
F80F80
F80F80
F80F80
F80F80
F80F80
FC1F00
FF7F00
FFFE00
FBFE00
F9F800
F80000
F80000
F80000
F80000
F80000
F80000
F80000
ENDCHAR
STARTCHAR 0071
ENCODING 113
SWIDTH 600 0
DWIDTH 20 0
BBX 17 25 2 -7
BITMAP
0F8F80
3FEF80
7FEF80
7FFF80
FC3F80
F81F80
F80F80
F00F80
F00F80
F00F80
F00F80
F80F80
F81F80
FC1F80
7F7F80
7FFF80
3FEF80
1FCF80
000F80
000F80
000F80
000F80
000F80
000F80
000F80
ENDCHAR
STARTCHAR 0072
ENCODING 114
SWIDTH 360 0
DWIDTH 12 0
BBX 11 18 2 0
BITMAP
F860
FBE0
FFE0
FFE0
FFC0
FC00
F800
F800
F800
F800
F800
F800
F800
F800
F800
F800
F800
F800
ENDCHAR
STARTCHAR 0073
ENCODING 115
SWIDTH 480 0
DWIDTH 16 0
BBX 14 18 1 0
BITMAP
0FC0
3FF0
3FF8
7CFC
787C
783C
7800
7F80
3FF0
1FF8
03FC
007C
F83C
F83C
7C7C
7FFC
3FF8
0FE0
ENDCHAR
STARTCHAR 0074
ENCODING 116
SWIDTH 420 0
DWIDTH 14 0
BBX 11 23 1 0
BITMAP
1F00
1F00
1F00
1F00
1F00
FFE0
FFE0
FFE0
FFE0
1F00
1F00
1F00
1F00
1F00
1F00
1F00
1F00
1F00
1F00
1F00
1FE0
0FE0
07E0
ENDCHAR
STARTCHAR 0075
ENCODING 117
SWIDTH 570 0
DWIDTH 19 0
BBX 16 18 2 0
BITMAP
F81F
F81F
F81F
F81F
F81F
F81F
F81F
F81F
F81F
F81F
F81F
F81F
F81F
F83F
FFFF
7FFF
7FDF
1F9F
ENDCHAR
STARTCHAR 0076
ENCODING 118
SWIDTH 540 0
DWIDTH 18 0
BBX 17 18 1 0
BITMAP
F00F80
F00F80
F80F00
780F00
781F00
7C1E00
3C1E00
3C3E00
3E3C00
1E3C00
1E7C00
1F7800
0F7800
0FF800
0FF000
07F000
07F000
07E000
ENDCHAR
STARTCHAR 0077
ENCODING 119
SWIDTH 810 0
DWIDTH 27 0
BBX 26 18 1 0
BITMAP
F01E07C0
F03E0780
F03E0780
F83F0780
783F0780
787F0F00
787F8F00
3C7F8F00
3CF78F00
3CF79E00
3CF3DE00
1EF3DE00
1FE3DE00
1FE3FC00
1FE1FC00
0FC1FC00
0FC1FC00
0FC0F800
ENDCHAR
STARTCHAR 0078
ENCODING 120
SWIDTH 570 0
DWIDTH 19 0
BBX 17 18 1 0
BITMAP
F80F80
7C1F00
7C1E00
3E3E00
3E7C00
1F7C00
0FF800
0FF000
07F000
07F000
0FF000
0FF800
1F7800
1E7C00
3E3E00
7C3E00
7C1F00
F81F00
ENDCHAR
STARTCHAR 0079
ENCODING 121
SWIDTH 540 0
DWIDTH 18 0
BBX 17 25 1 -7
BITMAP
F00F80
F80F80
F80F00
781F00
7C1E00
3C1E00
3C3E00
3E3C00
1E3C00
1E7C00
1F7800
0F7800
0FF000
07F000
07F000
07E000
03E000
03C000
03C000
07C000
078000
0F8000
FF0000
FF0000
FC0000
ENDCHAR
STARTCHAR 007A
ENCODING 122
SWIDTH 480 0
DWIDTH 16 0
BBX 13 18 2 0
BITMAP
FFF8
FFF8
FFF8
FFF8
00F8
01F0
03E0
07C0
0780
0F80
1F00
3E00
7C00
F800
FFF8
FFF8
FFF8
FFF8
ENDCHAR
STARTCHAR 007B
ENCODING 123
SWIDTH 420 0
DWIDTH 14 0
BBX 10 36 3 -8
BITMAP
0FC0
1FC0
1FC0
3E00
3C00
3C00
3C00
3C00
3C00
3C00
3C00
3C00
3C00
3C00
3C00
3C00
3C00
F000
F800
3C00
3C00
3C00
3C00
3C00
3C00
3C00
3C00
3C00
3C00
3C00
3C00
3C00
3E00
1FC0
1FC0
07C0
ENDCHAR
STARTCHAR 007C
ENCODING 124
SWIDTH 300 0
DWIDTH 10 0
BBX 4 40 3 -8
BITMAP
F0
F0
F0
F0
F0
F0
F0
F0
F0
F0
F0
F0
F0
F0
F0
F0
F0
F0
F0
F0
F0
F0
F0
F0
F0
F0
F0
F0
F0
F0
F0
F0
F0
F0
F0
F0
F0
F0
F0
F0
ENDCHAR
STARTCHAR 007D
ENCODING 125
SWIDTH 450 0
DWIDTH 15 0
BBX 10 36 3 -8
BITMAP
F800
FE00
FE00
1E00
0F00
0F00
0F00
0F00
0F00
0F00
0F00
0F00
0F00
0F00
0F00
0F00
0F00
07C0
07C0
0F00
0F00
0F00
0F00
0F00
0F00
0F00
0F00
0F00
0F00
0F00
0F00
0F00
1E00
FE00
FE00
F800
ENDCHAR
STARTCHAR 007E
ENCODING 126
SWIDTH 600 0
DWIDTH 20 0
BBX 14 5 3 10
BITMAP
1C1C
7FB8
7FF8
73F0
E000
ENDCHAR
STARTCHAR 00A0
ENCODING 160
SWIDTH 210 0
DWIDTH 7 0
BBX 0 0 0 0
BITMAP
ENDCHAR
STARTCHAR 00A1
ENCODING 161
SWIDTH 270 0
DWIDTH 9 0
BBX 5 24 2 -8
BITMAP
78
F8
F8
78
20
00
00
00
70
70
70
70
78
78
78
78
78
F8
F8
F8
F8
F8
F8
F8
ENDCHAR
STARTCHAR 00A2
ENCODING 162
SWIDTH 600 0
DWIDTH 20 0
BBX 17 22 1 -2
BITMAP
008000
008000
03F000
0FFC00
1FFE00
3FFF00
7E9F00
7C8F80
788F80
F88000
F88000
F88000
F88000
788F80
7C8F80
7C9F00
3FFF00
3FFE00
1FFC00
07F800
008000
008000
ENDCHAR
STARTCHAR 00A3
ENCODING 163
SWIDTH 600 0
DWIDTH 20 0
BBX 18 24 1 0
BITMAP
03F000
0FFE00
1FFF00
3FFF80
3E1F80
7E0FC0
7C07C0
7C07C0
7E0000
3E0000
3F0000
1F8000
0F8000
7FFC00
7FFC00
07C000
078000
078000
070000
1E0000
FFFFC0
FFFFC0
FFFFC0
FFFFC0
ENDCHAR
STARTCHAR 00A4
ENCODING 164
SWIDTH 600 0
DWIDTH 20 0
BBX 17 18 2 2
BITMAP
600300
F3E780
FFFF80
7FFF00
3F7E00
781F00
780F00
F00700
F00780
F00780
F00780
700700
780F00
7C1E00
7FFF00
FFFF00
F7F780
600300
ENDCHAR
STARTCHAR 00A5
ENCODING 165
SWIDTH 630 0
DWIDTH 21 0
BBX 19 23 1 0
BITMAP
F803E0
7C03E0
7C03C0
3C07C0
3E0780
1E0F80
1F0F00
0F1F00
0F9E00
07BE00
07FC00
03FC00
03F800
1FFF00
1FFF00
1FFF00
01F000
1FFF00
1FFF00
1FFF00
01F000
01F000
01F000
ENDCHAR
STARTCHAR 00A6
ENCODING 166
SWIDTH 300 0
DWIDTH 10 0
BBX 4 40 3 -8
BITMAP
F0
F0
F0
F0
F0
F0
F0
F0
F0
F0
F0
F0
F0
F0
F0
F0
F0
F0
00
00
00
00
00
00
F0
F0
F0
F0
F0
F0
F0
F0
F0
F0
F0
F0
F0
F0
F0
F0
ENDCHAR
STARTCHAR 00A7
ENCODING 167
SWIDTH 540 0
DWIDTH 18 0
BBX 16 24 1 0
BITMAP
03E0
1FF8
3FFC
3FFE
3C3E
3C1E
3E00
3FE0
3FFC
7FFE
78FF
F81F
780F
7E0F
3FFF
1FFE
07FC
007E
781E
7C1E
7E7E
3FFE
1FFC
0FF0
ENDCHAR
STARTCHAR 00A8
ENCODING 168
SWIDTH 450 0
DWIDTH 15 0
BBX 14 5 1 21
BITMAP
3030
7878
F87C
F87C
7878
ENDCHAR
STARTCHAR 00A9
ENCODING 169
SWIDTH 780 0
DWIDTH 26 0
BBX 25 24 1 0
BITMAP
000C0000
01FFC000
07FFF000
0FC1F800
1E003C00
3C001E00
387F0E00
70FF8F00
71F3C700
71C1E700
6380E300
E3800300
E3800380
E3800300
6380E700
71C1E700
71F7C700
78FF8E00
383F0E00
1C001C00
1F007C00
0FE3F800
03FFE000
01FFC000
ENDCHAR
STARTCHAR 00AA
ENCODING 170
SWIDTH 150 0
DWIDTH 5 0
BBX 5 5 0 13
BITMAP
78
F8
D8
D8
78
ENDCHAR
STARTCHAR 00AB
ENCODING 171
SWIDTH 690 0
DWIDTH 23 0
BBX 21 15 1 3
BITMAP
01E078
03C0F0
0781E0
0F83C0
1F07C0
3E0F80
7C1F00
F83E00
7C1F00
3C0F00
1E0780
0F03C0
0781E0
03C1F0
03E0F8
ENDCHAR
STARTCHAR 00AC
ENCODING 172
SWIDTH 630 0
DWIDTH 21 0
BBX 16 9 3 9
BITMAP
FFFF
FFFF
FFFF
FFFF
0007
0007
0007
0007
0007
ENDCHAR
STARTCHAR 00AD
ENCODING 173
SWIDTH 600 0
DWIDTH 20 0
BBX 12 3 4 9
BITMAP
FFF0
FFF0
FFF0
ENDCHAR
STARTCHAR 00AE
ENCODING 174
SWIDTH 330 0
DWIDTH 11 0
BBX 9 8 1 15
BITMAP
3E00
6100
5D80
D480
5C80
5580
6300
1E00
ENDCHAR
STARTCHAR 00AF
ENCODING 175
SWIDTH 360 0
DWIDTH 12 0
BBX 11 2 1 22
BITMAP
FFE0
FFE0
ENDCHAR
STARTCHAR 00B0
ENCODING 176
SWIDTH 300 0
DWIDTH 10 0
BBX 7 7 2 22
BITMAP
7C
FE
C6
C6
EE
7C
38
ENDCHAR
STARTCHAR 00B1
ENCODING 177
SWIDTH 600 0
DWIDTH 20 0
BBX 14 20 3 0
BITMAP
0780
0780
0780
0780
0780
FFFC
FFFC
FFFC
FFFC
0780
0780
0780
0780
0780
0000
0000
0000
FFFC
FFFC
FFFC
ENDCHAR
STARTCHAR 00B2
ENCODING 178
SWIDTH 300 0
DWIDTH 10 0
BBX 8 12 1 14
BITMAP
7E
FF
E7
C3
07
07
0E
1C
78
F0
FF
FF
ENDCHAR
STARTCHAR 00B3
ENCODING 179
SWIDTH 300 0
DWIDTH 10 0
BBX 9 13 1 13
BITMAP
0800
7F00
7F80
E380
0380
0780
1F00
1F00
0380
E380
E380
FF80
7F00
ENDCHAR
STARTCHAR 00B4
ENCODING 180
SWIDTH 270 0
DWIDTH 9 0
BBX 8 7 1 20
BITMAP
1F
1E
3C
7C
78
F0
30
ENDCHAR
STARTCHAR 00B5
ENCODING 181
SWIDTH 660 0
DWIDTH 22 0
BBX 19 25 2 -7
BITMAP
F03E00
F03E00
F03E00
F03E00
F03E00
F03E00
F03E00
F03E00
F03E00
F03E00
F03E00
F03E00
F83E00
F87E00
FFFF00
FFDFE0
FFDFE0
FF87E0
F00000
F00000
F00000
F00000
F00000
F00000
F00000
ENDCHAR
STARTCHAR 00B6
ENCODING 182
SWIDTH 570 0
DWIDTH 19 0
BBX 17 23 0 0
BITMAP
0FFF80
3FFF80
7FFF80
7FFF80
7FF380
7FF380
FFF380
7FF380
7FF380
7FF380
3FF380
1FF380
007380
007380
007380
007380
007380
007380
007380
007380
007380
007380
007380
ENDCHAR
STARTCHAR 00B7
ENCODING 183
SWIDTH 300 0
DWIDTH 10 0
BBX 5 5 3 9
BITMAP
60
F0
F8
F8
F0
ENDCHAR
STARTCHAR 00B8
ENCODING 184
SWIDTH 240 0
DWIDTH 8 0
BBX 7 8 1 -8
BITMAP
60
E0
FC
1C
0E
0E
FC
F8
ENDCHAR
STARTCHAR 00B9
ENCODING 185
SWIDTH 270 0
DWIDTH 9 0
BBX 8 13 1 13
BITMAP
38
78
F8
F8
D8
98
18
18
18
18
18
FF
FF
ENDCHAR
STARTCHAR 00BA
ENCODING 186
SWIDTH 150 0
DWIDTH 5 0
BBX 5 5 0 13
BITMAP
70
78
C8
D8
78
ENDCHAR
STARTCHAR 00BB
ENCODING 187
SWIDTH 690 0
DWIDTH 23 0
BBX 21 15 1 3
BITMAP
F83E00
7C1F00
3E0F00
1E0780
0F03C0
0781E0
03C1F0
03E0F8
03C0F0
07C1E0
0F83E0
1F07C0
3E0F80
7C1F00
781E00
ENDCHAR
STARTCHAR 00BC
ENCODING 188
SWIDTH 840 0
DWIDTH 28 0
BBX 26 23 1 0
BITMAP
3C003C00
7C003C00
FC007800
FC00F800
9C00F000
1C01E000
1C01E000
1C03C000
1C07C000
FF078000
FF0F0000
000F0780
001E0F80
003E1F80
003C1B80
00783B80
00783380
00F06380
01F07FC0
01E07FC0
03C00380
03C00380
07800380
ENDCHAR
STARTCHAR 00BD
ENCODING 189
SWIDTH 870 0
DWIDTH 29 0
BBX 27 23 1 0
BITMAP
3C001E00
7C001E00
FC003C00
FC007800
9C007800
1C00F000
1C00F000
1C01E000
1C03E000
FF03C000
FF078000
00078780
000F0FE0
001F1FE0
001E1CE0
003C00E0
003C00E0
007801C0
00F80380
00F00F00
01E01FE0
01E01FE0
03C01FE0
ENDCHAR
STARTCHAR 00BE
ENCODING 190
SWIDTH 840 0
DWIDTH 28 0
BBX 26 23 1 1
BITMAP
3F001E00
7F803C00
73807800
03807800
0F80F000
0E00F000
0F81E000
0383C000
F383C000
7F878000
7F078000
1C0F0780
001F0F80
001E0F80
003C1F80
003C3B80
00783380
00F87380
00F07FC0
01E07FC0
01E00380
03C00380
07C00380
ENDCHAR
STARTCHAR 00BF
ENCODING 191
SWIDTH 570 0
DWIDTH 19 0
BBX 16 24 2 -8
BITMAP
0380
03C0
07C0
03C0
03C0
0000
0000
03C0
07C0
07C0
0F80
1F00
3E00
7C00
F800
F800
F01F
F01F
F83F
FC3E
FFFE
7FFC
3FF8
0FE0
ENDCHAR
STARTCHAR 00C0
ENCODING 192
SWIDTH 660 0
DWIDTH 22 0
BBX 21 32 1 0
BITMAP
078000
07C000
03C000
01E000
01E000
00F000
000000
000000
000000
00F800
00F800
01FC00
01FC00
03FC00
03FE00
03DE00
07DE00
079F00
078F00
0F8F00
0F0F80
0F0780
1F0780
1FFFC0
3FFFC0
3FFFE0
3C03E0
7C01E0
7C01F0
7801F0
F800F0
F800F8
ENDCHAR
STARTCHAR 00C1
ENCODING 193
SWIDTH 660 0
DWIDTH 22 0
BBX 21 32 1 0
BITMAP
001F00
001E00
003E00
003C00
007800
007800
000000
000000
000000
00F800
00F800
01FC00
01FC00
03FC00
03FE00
03DE00
07DE00
079F00
078F00
0F8F00
0F0F80
0F0780
1F0780
1FFFC0
3FFFC0
3FFFE0
3C03E0
7C01E0
7C01F0
7801F0
F800F0
F800F8
ENDCHAR
STARTCHAR 00C2
ENCODING 194
SWIDTH 660 0
DWIDTH 22 0
BBX 21 31 1 0
BITMAP
00F000
01F800
01FC00
03DE00
078F00
0F0780
000000
000000
00F800
00F800
01FC00
01FC00
03FC00
03FE00
03DE00
07DE00
079F00
078F00
0F8F00
0F0F80
0F0780
1F0780
1FFFC0
3FFFC0
3FFFE0
3C03E0
7C01E0
7C01F0
7801F0
F800F0
F800F8
ENDCHAR
STARTCHAR 00C3
ENCODING 195
SWIDTH 660 0
DWIDTH 22 0
BBX 21 31 1 0
BITMAP
008700
03E700
07FE00
077E00
061800
000000
000000
000000
00F800
00F800
01FC00
01FC00
03FC00
03FE00
03DE00
07DE00
079F00
078F00
0F8F00
0F0F80
0F0780
1F0780
1FFFC0
3FFFC0
3FFFE0
3C03E0
7C01E0
7C01F0
7801F0
F800F0
F800F8
ENDCHAR
STARTCHAR 00C4
ENCODING 196
SWIDTH 660 0
DWIDTH 22 0
BBX 21 31 1 1
BITMAP
0F0780
0F8F80
0F8F80
0F0780
060200
000000
000000
000000
00F800
00F800
01FC00
01FC00
03FC00
03FE00
03DE00
07DE00
079F00
078F00
0F8F00
0F0F80
0F0780
1F0780
1FFFC0
3FFFC0
3FFFE0
3C03E0
7C01E0
7C01F0
7801F0
F800F0
F800F8
ENDCHAR
STARTCHAR 00C5
ENCODING 197
SWIDTH 660 0
DWIDTH 22 0
BBX 21 32 1 0
BITMAP
00F000
01F800
018C00
019800
01F800
00F000
000000
000000
000000
00F800
00F800
01FC00
01FC00
03FC00
03FE00
03DE00
07DE00
079F00
078F00
0F8F00
0F0F80
0F0780
1F0780
1FFFC0
3FFFC0
3FFFE0
3C03E0
7C01E0
7C01F0
7801F0
F800F0
F800F8
ENDCHAR
STARTCHAR 00C6
ENCODING 198
SWIDTH 960 0
DWIDTH 32 0
BBX 31 23 0 0
BITMAP
001FFFFE
001FFFFE
003FFFFE
003FFFFE
007FF000
007DF000
00FDF000
00F9F000
01F9F000
01F1FFF8
03F1FFF8
03E1FFF8
07E1FFF8
07C1F000
0FFFF000
0FFFF000
1FFFF000
1F01F000
3F01F000
3E01FFFE
7E01FFFE
7C01FFFE
FC01FFFE
ENDCHAR
STARTCHAR 00C7
ENCODING 199
SWIDTH 690 0
DWIDTH 23 0
BBX 21 32 1 -8
BITMAP
00FC00
03FF00
0FFFC0
1FFFE0
1F87E0
3F01F0
3E00F0
7C00F8
7C0078
780000
F80000
F80000
F80000
F80000
780000
7C0000
7C00F8
7C00F8
3E01F0
3F03F0
1FFFE0
0FFFC0
07FF80
01FE00
007000
007000
007C00
000E00
000600
000600
007E00
007C00
ENDCHAR
STARTCHAR 00C8
ENCODING 200
SWIDTH 540 0
DWIDTH 18 0
BBX 15 32 2 0
BITMAP
3C00
1E00
1E00
0F00
0780
0780
0000
0000
0000
FFFE
FFFE
FFFE
FFFE
F800
F800
F800
F800
F800
FFFC
FFFC
FFFC
FFFC
F800
F800
F800
F800
F800
F800
FFFE
FFFE
FFFE
FFFE
ENDCHAR
STARTCHAR 00C9
ENCODING 201
SWIDTH 540 0
DWIDTH 18 0
BBX 15 32 2 0
BITMAP
0078
00F8
00F0
01E0
01E0
03C0
0000
0000
0000
FFFE
FFFE
FFFE
FFFE
F800
F800
F800
F800
F800
FFFC
FFFC
FFFC
FFFC
F800
F800
F800
F800
F800
F800
FFFE
FFFE
FFFE
FFFE
ENDCHAR
STARTCHAR 00CA
ENCODING 202
SWIDTH 540 0
DWIDTH 18 0
BBX 15 31 2 0
BITMAP
03C0
07C0
0FE0
1EF0
3C78
783C
0000
0000
FFFE
FFFE
FFFE
FFFE
F800
F800
F800
F800
F800
FFFC
FFFC
FFFC
FFFC
F800
F800
F800
F800
F800
F800
FFFE
FFFE
FFFE
FFFE
ENDCHAR
STARTCHAR 00CB
ENCODING 203
SWIDTH 540 0
DWIDTH 18 0
BBX 15 31 2 1
BITMAP
3C3C
7C7E
7C7E
7C3C
1018
0000
0000
0000
FFFE
FFFE
FFFE
FFFE
F800
F800
F800
F800
F800
FFFC
FFFC
FFFC
FFFC
F800
F800
F800
F800
F800
F800
FFFE
FFFE
FFFE
FFFE
ENDCHAR
STARTCHAR 00CC
ENCODING 204
SWIDTH 240 0
DWIDTH 8 0
BBX 8 32 -1 0
BITMAP
F0
78
78
3C
1C
1E
00
00
00
1F
1F
1F
1F
1F
1F
1F
1F
1F
1F
1F
1F
1F
1F
1F
1F
1F
1F
1F
1F
1F
1F
1F
ENDCHAR
STARTCHAR 00CD
ENCODING 205
SWIDTH 240 0
DWIDTH 8 0
BBX 8 32 2 0
BITMAP
0F
1E
1E
3C
38
78
00
00
00
F8
F8
F8
F8
F8
F8
F8
F8
F8
F8
F8
F8
F8
F8
F8
F8
F8
F8
F8
F8
F8
F8
F8
ENDCHAR
STARTCHAR 00CE
ENCODING 206
SWIDTH 240 0
DWIDTH 8 0
BBX 13 31 -2 0
BITMAP
0700
0F80
1FC0
3DE0
78F0
F078
0000
0000
0F80
0F80
0F80
0F80
0F80
0F80
0F80
0F80
0F80
0F80
0F80
0F80
0F80
0F80
0F80
0F80
0F80
0F80
0F80
0F80
0F80
0F80
0F80
ENDCHAR
STARTCHAR 00CF
ENCODING 207
SWIDTH 240 0
DWIDTH 8 0
BBX 13 32 -2 0
BITMAP
2000
F878
F8F8
F8F8
F878
2030
0000
0000
0000
0F80
0F80
0F80
0F80
0F80
0F80
0F80
0F80
0F80
0F80
0F80
0F80
0F80
0F80
0F80
0F80
0F80
0F80
0F80
0F80
0F80
0F80
0F80
ENDCHAR
STARTCHAR 00D0
ENCODING 208
SWIDTH 690 0
DWIDTH 23 0
BBX 21 23 1 0
BITMAP
3FFE00
3FFF80
3FFFC0
3FFFE0
3C07F0
3C01F0
3C01F8
3C00F8
3C00F8
3C00F8
FFC0F8
FFC0F8
FFC0F8
3C00F8
3C00F8
3C00F8
3C01F8
3C03F0
3C0FF0
3FFFE0
3FFFC0
3FFF00
3FFC00
ENDCHAR
STARTCHAR 00D1
ENCODING 209
SWIDTH 690 0
DWIDTH 23 0
BBX 19 31 2 0
BITMAP
010600
07EE00
07FE00
0EFC00
0E1800
000000
000000
000000
FC01E0
FC01E0
FE01E0
FF01E0
FF01E0
FF81E0
FF81E0
FFC1E0
FFC1E0
FBE1E0
F9F1E0
F9F1E0
F8F9E0
F8F9E0
F87DE0
F83FE0
F83FE0
F81FE0
F81FE0
F80FE0
F807E0
F807E0
F803E0
ENDCHAR
STARTCHAR 00D2
ENCODING 210
SWIDTH 720 0
DWIDTH 24 0
BBX 22 32 1 0
BITMAP
07C000
03C000
01E000
01E000
00F000
007000
000000
000000
00F800
03FF00
0FFFC0
1FFFE0
1FCFF0
3F03F0
7E01F8
7C00F8
7C00F8
7C00F8
F8007C
F8007C
F8007C
F8007C
F8007C
7C00F8
7C00F8
7E00F8
3E01F0
3F03F0
1FFFE0
0FFFC0
07FF80
01FE00
ENDCHAR
STARTCHAR 00D3
ENCODING 211
SWIDTH 720 0
DWIDTH 24 0
BBX 22 32 1 0
BITMAP
000F80
000F00
001E00
001E00
003C00
003800
000000
000000
00F800
03FF00
0FFFC0
1FFFE0
1FCFF0
3F03F0
7E01F8
7C00F8
7C00F8
7C00F8
F8007C
F8007C
F8007C
F8007C
F8007C
7C00F8
7C00F8
7E00F8
3E01F0
3F03F0
1FFFE0
0FFFC0
07FF80
01FE00
ENDCHAR
STARTCHAR 00D4
ENCODING 212
SWIDTH 720 0
DWIDTH 24 0
BBX 22 31 1 0
BITMAP
007800
00FC00
01FE00
03FF00
03CF80
0787C0
000000
00F800
03FF00
0FFFC0
1FFFE0
1FCFF0
3F03F0
7E01F8
7C00F8
7C00F8
7C00F8
F8007C
F8007C
F8007C
F8007C
F8007C
7C00F8
7C00F8
7E00F8
3E01F0
3F03F0
1FFFE0
0FFFC0
07FF80
01FE00
ENDCHAR
STARTCHAR 00D5
ENCODING 213
SWIDTH 720 0
DWIDTH 24 0
BBX 22 31 1 0
BITMAP
00C300
03F300
03FF00
03BF00
030E00
000000
000000
00F800
03FF00
0FFFC0
1FFFE0
1FCFF0
3F03F0
7E01F8
7C00F8
7C00F8
7C00F8
F8007C
F8007C
F8007C
F8007C
F8007C
7C00F8
7C00F8
7E00F8
3E01F0
3F03F0
1FFFE0
0FFFC0
07FF80
01FE00
ENDCHAR
STARTCHAR 00D6
ENCODING 214
SWIDTH 720 0
DWIDTH 24 0
BBX 22 31 1 1
BITMAP
0787C0
07C7C0
07C7C0
0787C0
030100
000000
000000
00F800
03FF00
0FFFC0
1FFFE0
1FCFF0
3F03F0
7E01F8
7C00F8
7C00F8
7C00F8
F8007C
F8007C
F8007C
F8007C
F8007C
7C00F8
7C00F8
7E00F8
3E01F0
3F03F0
1FFFE0
0FFFC0
07FF80
01FE00
ENDCHAR
STARTCHAR 00D7
ENCODING 215
SWIDTH 570 0
DWIDTH 19 0
BBX 12 13 4 4
BITMAP
0040
60E0
F1F0
FBF0
7FE0
3FC0
1F80
3F80
7FC0
FFE0
F9F0
70E0
2040
ENDCHAR
STARTCHAR 00D8
ENCODING 216
SWIDTH 720 0
DWIDTH 24 0
BBX 21 26 2 -1
BITMAP
0000F8
00F8F0
07FFE0
0FFFE0
1FFFC0
3F8FE0
7E07E0
7C0FF0
FC1FF0
F81FF8
F83CF8
F87CF8
F878F8
F8F0F8
F9F0F8
F9E0F8
FBC0F8
FBC1F0
FF81F0
7F03F0
7F07E0
3FFFE0
3FFFC0
3FFF00
7BFE00
F80000
ENDCHAR
STARTCHAR 00D9
ENCODING 217
SWIDTH 660 0
DWIDTH 22 0
BBX 19 32 2 0
BITMAP
0F0000
0F8000
078000
03C000
03C000
01E000
000000
000000
000000
F003E0
F003E0
F003E0
F003E0
F003E0
F003E0
F003E0
F003E0
F003E0
F003E0
F003E0
F003E0
F003E0
F003E0
F803E0
F803E0
F803E0
FC07C0
7E0FC0
7FFF80
3FFF80
1FFE00
07FC00
ENDCHAR
STARTCHAR 00DA
ENCODING 218
SWIDTH 660 0
DWIDTH 22 0
BBX 19 32 2 0
BITMAP
001E00
003C00
007C00
007800
00F000
00F000
000000
000000
000000
F003E0
F003E0
F003E0
F003E0
F003E0
F003E0
F003E0
F003E0
F003E0
F003E0
F003E0
F003E0
F003E0
F003E0
F803E0
F803E0
F803E0
FC07C0
7E0FC0
7FFF80
3FFF80
1FFE00
07FC00
ENDCHAR
STARTCHAR 00DB
ENCODING 219
SWIDTH 660 0
DWIDTH 22 0
BBX 19 31 2 0
BITMAP
00E000
01F000
03F800
07BC00
0F1E00
1E0F00
000000
000000
F003E0
F003E0
F003E0
F003E0
F003E0
F003E0
F003E0
F003E0
F003E0
F003E0
F003E0
F003E0
F003E0
F003E0
F803E0
F803E0
F803E0
FC07C0
7E0FC0
7FFF80
3FFF80
1FFE00
07FC00
ENDCHAR
STARTCHAR 00DC
ENCODING 220
SWIDTH 660 0
DWIDTH 22 0
BBX 19 32 2 0
BITMAP
040000
1E0F00
1F1F00
1F1F00
1F0F00
0C0600
000000
000000
000000
F003E0
F003E0
F003E0
F003E0
F003E0
F003E0
F003E0
F003E0
F003E0
F003E0
F003E0
F003E0
F003E0
F003E0
F803E0
F803E0
F803E0
FC07C0
7E0FC0
7FFF80
3FFF80
1FFE00
07FC00
ENDCHAR
STARTCHAR 00DD
ENCODING 221
SWIDTH 630 0
DWIDTH 21 0
BBX 19 32 1 0
BITMAP
001E00
003E00
003C00
007800
007800
00F000
000000
000000
000000
F803E0
7C03E0
7C03C0
3C07C0
3E0780
1E0F80
1F0F00
0F1F00
0F9E00
07BE00
07FC00
03FC00
03F800
01F800
01F000
01F000
01F000
01F000
01F000
01F000
01F000
01F000
01F000
ENDCHAR
STARTCHAR 00DE
ENCODING 222
SWIDTH 600 0
DWIDTH 20 0
BBX 17 23 2 0
BITMAP
F00000
F00000
F00000
FFC000
FFF800
FFFE00
FFFE00
F0FF00
F01F00
F00F80
F00F80
F00F80
F00F80
F00F80
F01F00
FFFF00
FFFE00
FFFC00
FFF800
F00000
F00000
F00000
F00000
ENDCHAR
STARTCHAR 00DF
ENCODING 223
SWIDTH 570 0
DWIDTH 19 0
BBX 16 24 2 0
BITMAP
07E0
1FF8
3FFC
7FFE
F83E
F81F
F81F
F81F
F81E
F83E
FBFC
FBF0
FBFC
F83E
F81F
F80F
F80F
F80F
F80F
F81F
FBFE
FBFE
FBFC
FBF0
ENDCHAR
STARTCHAR 00E0
ENCODING 224
SWIDTH 600 0
DWIDTH 20 0
BBX 17 27 1 0
BITMAP
1F0000
0F0000
0F8000
078000
03C000
03C000
01E000
000000
000000
07C780
1FE780
3FF780
7FFF80
7E1F80
7C0F80
F80F80
F80780
F80780
F80780
F80780
F80F80
7C0F80
7C1F80
7FFF80
3FF780
1FE780
0FC780
ENDCHAR
STARTCHAR 00E1
ENCODING 225
SWIDTH 600 0
DWIDTH 20 0
BBX 17 27 1 0
BITMAP
001E00
003E00
003C00
007800
007800
00F000
00E000
000000
000000
07C780
1FE780
3FF780
7FFF80
7E1F80
7C0F80
F80F80
F80780
F80780
F80780
F80780
F80F80
7C0F80
7C1F80
7FFF80
3FF780
1FE780
0FC780
ENDCHAR
STARTCHAR 00E2
ENCODING 226
SWIDTH 600 0
DWIDTH 20 0
BBX 17 25 1 0
BITMAP
01E000
03F000
07F800
0FBC00
1F1E00
000000
000000
07C780
1FE780
3FF780
7FFF80
7E1F80
7C0F80
F80F80
F80780
F80780
F80780
F80780
F80F80
7C0F80
7C1F80
7FFF80
3FF780
1FE780
0FC780
ENDCHAR
STARTCHAR 00E3
ENCODING 227
SWIDTH 600 0
DWIDTH 20 0
BBX 17 25 1 0
BITMAP
038E00
0FFC00
0FFC00
0CFC00
0C0000
000000
000000
07C780
1FE780
3FF780
7FFF80
7E1F80
7C0F80
F80F80
F80780
F80780
F80780
F80780
F80F80
7C0F80
7C1F80
7FFF80
3FF780
1FE780
0FC780
ENDCHAR
STARTCHAR 00E4
ENCODING 228
SWIDTH 600 0
DWIDTH 20 0
BBX 17 26 1 0
BITMAP
0C0600
1E1F00
1F1F00
1F1F00
1E0F00
000000
000000
000000
07C780
1FE780
3FF780
7FFF80
7E1F80
7C0F80
F80F80
F80780
F80780
F80780
F80780
F80F80
7C0F80
7C1F80
7FFF80
3FF780
1FE780
0FC780
ENDCHAR
STARTCHAR 00E5
ENCODING 229
SWIDTH 600 0
DWIDTH 20 0
BBX 17 27 1 0
BITMAP
004000
01F000
03B000
031800
033000
03F000
01E000
000000
000000
07C780
1FE780
3FF780
7FFF80
7E1F80
7C0F80
F80F80
F80780
F80780
F80780
F80780
F80F80
7C0F80
7C1F80
7FFF80
3FF780
1FE780
0FC780
ENDCHAR
STARTCHAR 00E6
ENCODING 230
SWIDTH 900 0
DWIDTH 30 0
BBX 28 18 1 0
BITMAP
07E07E00
1FF9FF80
3FFFFFC0
3FFFFFE0
7C1F83E0
781F81E0
001F01F0
001F00F0
0FFFFFF0
3FFFFFF0
7F1F0000
781F0000
F81F01F0
F81F81E0
7C3FE7E0
7FFBFFC0
3FF1FF80
1FC0FF00
ENDCHAR
STARTCHAR 00E7
ENCODING 231
SWIDTH 570 0
DWIDTH 19 0
BBX 17 26 1 -8
BITMAP
03F000
0FFC00
1FFE00
3FFF00
7E1F00
7C0F00
780F80
F80000
F80000
F80000
F80000
780F80
7C0F80
7C1F00
3FFF00
3FFE00
1FFC00
07F800
00C000
01E000
01F800
001800
001800
013800
01F800
01F000
ENDCHAR
STARTCHAR 00E8
ENCODING 232
SWIDTH 570 0
DWIDTH 19 0
BBX 17 27 1 0
BITMAP
1E0000
1F0000
0F0000
078000
078000
03C000
01C000
000000
000000
03F000
0FFC00
1FFE00
3F3F00
7C0F00
780F00
780F80
FFFF80
FFFF80
FFFF80
F80000
780000
780F80
7C1F00
3F7F00
3FFE00
1FFC00
07F800
ENDCHAR
STARTCHAR 00E9
ENCODING 233
SWIDTH 570 0
DWIDTH 19 0
BBX 17 27 1 0
BITMAP
003E00
003C00
007C00
007800
00F000
00F000
01E000
000000
000000
03F000
0FFC00
1FFE00
3F3F00
7C0F00
780F00
780F80
FFFF80
FFFF80
FFFF80
F80000
780000
780F80
7C1F00
3F7F00
3FFE00
1FFC00
07F800
ENDCHAR
STARTCHAR 00EA
ENCODING 234
SWIDTH 570 0
DWIDTH 19 0
BBX 17 25 1 0
BITMAP
01E000
03F000
07F800
0F7C00
1E3E00
000000
000000
03F000
0FFC00
1FFE00
3F3F00
7C0F00
780F00
780F80
FFFF80
FFFF80
FFFF80
F80000
780000
780F80
7C1F00
3F7F00
3FFE00
1FFC00
07F800
ENDCHAR
STARTCHAR 00EB
ENCODING 235
SWIDTH 570 0
DWIDTH 19 0
BBX 17 26 1 0
BITMAP
0C0C00
1E1E00
3E1F00
3E1F00
1E1E00
000000
000000
000000
03F000
0FFC00
1FFE00
3F3F00
7C0F00
780F00
780F80
FFFF80
FFFF80
FFFF80
F80000
780000
780F80
7C1F00
3F7F00
3FFE00
1FFC00
07F800
ENDCHAR
STARTCHAR 00EC
ENCODING 236
SWIDTH 270 0
DWIDTH 9 0
BBX 8 27 -1 0
BITMAP
F0
F8
78
3C
3C
1E
0E
00
00
1F
1F
1F
1F
1F
1F
1F
1F
1F
1F
1F
1F
1F
1F
1F
1F
1F
1F
ENDCHAR
STARTCHAR 00ED
ENCODING 237
SWIDTH 270 0
DWIDTH 9 0
BBX 9 27 2 0
BITMAP
0F80
0F00
1F00
1E00
3C00
3C00
7800
0000
0000
F800
F800
F800
F800
F800
F800
F800
F800
F800
F800
F800
F800
F800
F800
F800
F800
F800
F800
ENDCHAR
STARTCHAR 00EE
ENCODING 238
SWIDTH 270 0
DWIDTH 9 0
BBX 12 25 -1 0
BITMAP
0F00
1F80
3FC0
7BE0
F1F0
0000
0000
1F00
1F00
1F00
1F00
1F00
1F00
1F00
1F00
1F00
1F00
1F00
1F00
1F00
1F00
1F00
1F00
1F00
1F00
ENDCHAR
STARTCHAR 00EF
ENCODING 239
SWIDTH 270 0
DWIDTH 9 0
BBX 14 26 -2 0
BITMAP
3030
F878
F87C
F87C
7878
0000
0000
0000
0F80
0F80
0F80
0F80
0F80
0F80
0F80
0F80
0F80
0F80
0F80
0F80
0F80
0F80
0F80
0F80
0F80
0F80
ENDCHAR
STARTCHAR 00F0
ENCODING 240
SWIDTH 600 0
DWIDTH 20 0
BBX 17 27 1 0
BITMAP
07C100
07F700
07FF80
01FE00
00FE00
01FF00
01DF00
000F00
000F80
0FCF80
1FEF80
3FFF80
7FFF80
FC1F80
F81F80
F80F80
F80F80
F00F80
F00F80
F80F80
F80F80
F80F00
7C1F00
7FFE00
3FFE00
1FFC00
0FF000
ENDCHAR
STARTCHAR 00F1
ENCODING 241
SWIDTH 600 0
DWIDTH 20 0
BBX 16 25 2 0
BITMAP
0F18
1FF8
1FF8
19F8
1800
0000
0000
F9F8
FBFC
FFFE
FFFE
FC3F
F81F
F81F
F80F
F80F
F80F
F80F
F80F
F80F
F80F
F80F
F80F
F80F
F80F
ENDCHAR
STARTCHAR 00F2
ENCODING 242
SWIDTH 570 0
DWIDTH 19 0
BBX 17 27 1 0
BITMAP
1E0000
1F0000
0F0000
078000
078000
03C000
01C000
000000
000000
03F000
0FFC00
1FFE00
3FFF00
7E1F00
7C0F80
780F80
F80780
F80780
F80780
F80780
780F80
7C0F80
7C1F00
3FFF00
3FFE00
1FFC00
07F800
ENDCHAR
STARTCHAR 00F3
ENCODING 243
SWIDTH 570 0
DWIDTH 19 0
BBX 17 27 1 0
BITMAP
003E00
003C00
007C00
007800
00F000
00F000
01E000
000000
000000
03F000
0FFC00
1FFE00
3FFF00
7E1F00
7C0F80
780F80
F80780
F80780
F80780
F80780
780F80
7C0F80
7C1F00
3FFF00
3FFE00
1FFC00
07F800
ENDCHAR
STARTCHAR 00F4
ENCODING 244
SWIDTH 570 0
DWIDTH 19 0
BBX 17 25 1 0
BITMAP
01E000
03F000
07F800
0F7C00
1E3E00
000000
000000
03F000
0FFC00
1FFE00
3FFF00
7E1F00
7C0F80
780F80
F80780
F80780
F80780
F80780
780F80
7C0F80
7C1F00
3FFF00
3FFE00
1FFC00
07F800
ENDCHAR
STARTCHAR 00F5
ENCODING 245
SWIDTH 570 0
DWIDTH 19 0
BBX 17 25 1 0
BITMAP
070C00
0FFC00
0FFC00
1CF800
1C0000
000000
000000
03F000
0FFC00
1FFE00
3FFF00
7E1F00
7C0F80
780F80
F80780
F80780
F80780
F80780
780F80
7C0F80
7C1F00
3FFF00
3FFE00
1FFC00
07F800
ENDCHAR
STARTCHAR 00F6
ENCODING 246
SWIDTH 570 0
DWIDTH 19 0
BBX 17 26 1 0
BITMAP
0C0C00
1E1E00
3E1F00
3E1F00
1E1E00
000000
000000
000000
03F000
0FFC00
1FFE00
3FFF00
7E1F00
7C0F80
780F80
F80780
F80780
F80780
F80780
780F80
7C0F80
7C1F00
3FFF00
3FFE00
1FFC00
07F800
ENDCHAR
STARTCHAR 00F7
ENCODING 247
SWIDTH 600 0
DWIDTH 20 0
BBX 15 19 2 1
BITMAP
0100
07C0
07C0
07C0
07C0
0100
0000
0000
FFFE
FFFE
FFFE
FFFE
0000
0000
03C0
07C0
07C0
07C0
0380
ENDCHAR
STARTCHAR 00F8
ENCODING 248
SWIDTH 570 0
DWIDTH 19 0
BBX 17 20 1 -1
BITMAP
000700
03FE00
0FFE00
1FFE00
3FFF00
7E3F00
7C7F80
787F80
F8E780
F9E780
F9C780
FBC780
7B8F80
7F0F80
7F1F00
3FFF00
3FFE00
1FFC00
3FF800
380000
ENDCHAR
STARTCHAR 00F9
ENCODING 249
SWIDTH 570 0
DWIDTH 19 0
BBX 16 27 2 0
BITMAP
3C00
3E00
1E00
1F00
0F00
0780
0780
0000
0000
F81F
F81F
F81F
F81F
F81F
F81F
F81F
F81F
F81F
F81F
F81F
F81F
F81F
F83F
FFFF
7FFF
7FDF
1F9F
ENDCHAR
STARTCHAR 00FA
ENCODING 250
SWIDTH 570 0
DWIDTH 19 0
BBX 16 27 2 0
BITMAP
007C
0078
00F0
00F0
01E0
01C0
03C0
0000
0000
F81F
F81F
F81F
F81F
F81F
F81F
F81F
F81F
F81F
F81F
F81F
F81F
F81F
F83F
FFFF
7FFF
7FDF
1F9F
ENDCHAR
STARTCHAR 00FB
ENCODING 251
SWIDTH 570 0
DWIDTH 19 0
BBX 16 25 2 0
BITMAP
07C0
07E0
0FF0
1EF8
3C78
0004
0000
F81F
F81F
F81F
F81F
F81F
F81F
F81F
F81F
F81F
F81F
F81F
F81F
F81F
F83F
FFFF
7FFF
7FDF
1F9F
ENDCHAR
STARTCHAR 00FC
ENCODING 252
SWIDTH 570 0
DWIDTH 19 0
BBX 16 26 2 0
BITMAP
3818
7C3C
7C7E
7C3E
3C3C
0000
0000
0000
F81F
F81F
F81F
F81F
F81F
F81F
F81F
F81F
F81F
F81F
F81F
F81F
F81F
F83F
FFFF
7FFF
7FDF
1F9F
ENDCHAR
STARTCHAR 00FD
ENCODING 253
SWIDTH 540 0
DWIDTH 18 0
BBX 17 34 1 -7
BITMAP
003C00
007C00
007800
00F000
00F000
01E000
01C000
000000
000000
F00F80
F80F80
F80F00
781F00
7C1E00
3C1E00
3C3E00
3E3C00
1E3C00
1E7C00
1F7800
0F7800
0FF000
07F000
07F000
07E000
03E000
03C000
03C000
07C000
078000
0F8000
FF0000
FF0000
FC0000
ENDCHAR
STARTCHAR 00FE
ENCODING 254
SWIDTH 600 0
DWIDTH 20 0
BBX 17 33 2 -8
BITMAP
F80000
F80000
F80000
F80000
F80000
F80000
F80000
F9F800
FBFC00
FFFE00
FFFF00
FC1F00
F80F80
F80F80
F80F80
F80F80
F80F80
F80F80
F80F80
F80F80
FC1F00
FF7F00
FFFE00
FBFE00
F9F800
F80000
F80000
F80000
F80000
F80000
F80000
F80000
F80000
ENDCHAR
STARTCHAR 00FF
ENCODING 255
SWIDTH 540 0
DWIDTH 18 0
BBX 17 33 1 -7
BITMAP
180C00
3C3E00
3E3E00
3E3E00
3C1E00
000000
000000
000000
F00F80
F80F80
F80F00
781F00
7C1E00
3C1E00
3C3E00
3E3C00
1E3C00
1E7C00
1F7800
0F7800
0FF000
07F000
07F000
07E000
03E000
03C000
03C000
07C000
078000
0F8000
FF0000
FF0000
FC0000
ENDCHAR
STARTCHAR 0100
ENCODING 256
SWIDTH 660 0
DWIDTH 22 0
BBX 21 28 1 0
BITMAP
07FF00
07FF00
000000
000000
000000
00F800
00F800
01FC00
01FC00
03FC00
03FE00
03DE00
07DE00
079F00
078F00
0F8F00
0F0F80
0F0780
1F0780
1FFFC0
3FFFC0
3FFFE0
3C03E0
7C01E0
7C01F0
7801F0
F800F0
F800F8
ENDCHAR
STARTCHAR 0101
ENCODING 257
SWIDTH 600 0
DWIDTH 20 0
BBX 17 23 1 0
BITMAP
0FFE00
0FFE00
000000
000000
000000
07C780
1FE780
3FF780
7FFF80
7E1F80
7C0F80
F80F80
F80780
F80780
F80780
F80780
F80F80
7C0F80
7C1F80
7FFF80
3FF780
1FE780
0FC780
ENDCHAR
STARTCHAR 0102
ENCODING 258
SWIDTH 660 0
DWIDTH 22 0
BBX 21 30 1 0
BITMAP
0F0F00
07DF00
03FE00
01F800
000000
000000
000000
00F800
00F800
01FC00
01FC00
03FC00
03FE00
03DE00
07DE00
079F00
078F00
0F8F00
0F0F80
0F0780
1F0780
1FFFC0
3FFFC0
3FFFE0
3C03E0
7C01E0
7C01F0
7801F0
F800F0
F800F8
ENDCHAR
STARTCHAR 0103
ENCODING 259
SWIDTH 600 0
DWIDTH 20 0
BBX 17 24 1 0
BITMAP
1E1E00
0FFC00
07F800
01F000
000000
000000
07C780
1FE780
3FF780
7FFF80
7E1F80
7C0F80
F80F80
F80780
F80780
F80780
F80780
F80F80
7C0F80
7C1F80
7FFF80
3FF780
1FE780
0FC780
ENDCHAR
STARTCHAR 0104
ENCODING 260
SWIDTH 660 0
DWIDTH 22 0
BBX 21 29 1 -6
BITMAP
00F800
00F800
01FC00
01FC00
03FC00
03FE00
03DE00
07DE00
079F00
078F00
0F8F00
0F0F80
0F0780
1F0780
1FFFC0
3FFFC0
3FFFE0
3C03E0
7C01E0
7C01F0
7801F0
F800F0
F800F8
0000E0
0001C0
0001C0
0001F8
0000F8
000078
ENDCHAR
STARTCHAR 0105
ENCODING 261
SWIDTH 600 0
DWIDTH 20 0
BBX 19 24 1 -6
BITMAP
07C780
1FE780
3FF780
7FFF80
7E1F80
7C0F80
F80F80
F80780
F80780
F80780
F80780
F80F80
7C0F80
7C1F80
7FFF80
3FF780
1FE780
0FC780
000780
000700
000700
0007E0
0007E0
0001E0
ENDCHAR
STARTCHAR 0106
ENCODING 262
SWIDTH 690 0
DWIDTH 23 0
BBX 21 32 1 0
BITMAP
000F80
001F00
001E00
003E00
003C00
007800
000000
000000
00FC00
03FF00
0FFFC0
1FFFE0
1F87E0
3F01F0
3E00F0
7C00F8
7C0078
780000
F80000
F80000
F80000
F80000
780000
7C0000
7C00F8
7C00F8
3E01F0
3F03F0
1FFFE0
0FFFC0
07FF80
01FE00
ENDCHAR
STARTCHAR 0107
ENCODING 263
SWIDTH 570 0
DWIDTH 19 0
BBX 17 27 1 0
BITMAP
003E00
003C00
007C00
007800
00F000
00F000
01E000
000000
000000
03F000
0FFC00
1FFE00
3FFF00
7E1F00
7C0F00
780F80
F80000
F80000
F80000
F80000
780F80
7C0F80
7C1F00
3FFF00
3FFE00
1FFC00
07F800
ENDCHAR
STARTCHAR 010A
ENCODING 266
SWIDTH 690 0
DWIDTH 23 0
BBX 21 31 1 1
BITMAP
007800
00F800
00F800
007800
003000
000000
000000
00FC00
03FF00
0FFFC0
1FFFE0
1F87E0
3F01F0
3E00F0
7C00F8
7C0078
780000
F80000
F80000
F80000
F80000
780000
7C0000
7C00F8
7C00F8
3E01F0
3F03F0
1FFFE0
0FFFC0
07FF80
01FE00
ENDCHAR
STARTCHAR 010B
ENCODING 267
SWIDTH 570 0
DWIDTH 19 0
BBX 17 26 1 0
BITMAP
00C000
01E000
03E000
03E000
01E000
000000
000000
000000
03F000
0FFC00
1FFE00
3FFF00
7E1F00
7C0F00
780F80
F80000
F80000
F80000
F80000
780F80
7C0F80
7C1F00
3FFF00
3FFE00
1FFC00
07F800
ENDCHAR
STARTCHAR 010C
ENCODING 268
SWIDTH 690 0
DWIDTH 23 0
BBX 21 31 1 0
BITMAP
078780
03CF00
03FE00
01FC00
00FC00
007800
000000
00FC00
03FF00
0FFFC0
1FFFE0
1F87E0
3F01F0
3E00F0
7C00F8
7C0078
780000
F80000
F80000
F80000
F80000
780000
7C0000
7C00F8
7C00F8
3E01F0
3F03F0
1FFFE0
0FFFC0
07FF80
01FE00
ENDCHAR
STARTCHAR 010D
ENCODING 269
SWIDTH 570 0
DWIDTH 19 0
BBX 17 25 1 0
BITMAP
1E1E00
0F3C00
07F800
07F000
03E000
000000
000000
03F000
0FFC00
1FFE00
3FFF00
7E1F00
7C0F00
780F80
F80000
F80000
F80000
F80000
780F80
7C0F80
7C1F00
3FFF00
3FFE00
1FFC00
07F800
ENDCHAR
STARTCHAR 010E
ENCODING 270
SWIDTH 660 0
DWIDTH 22 0
BBX 19 31 2 0
BITMAP
1E1E00
0F3C00
0FF800
07F800
03F000
01E000
000000
000000
FFF800
FFFE00
FFFF00
FFFF80
F01FC0
F007C0
F003E0
F003E0
F003E0
F003E0
F003E0
F003E0
F003E0
F003E0
F003E0
F003E0
F007E0
F00FC0
F03FC0
FFFF80
FFFF00
FFFE00
FFF000
ENDCHAR
STARTCHAR 010F
ENCODING 271
SWIDTH 780 0
DWIDTH 26 0
BBX 25 27 1 0
BITMAP
00000F00
00001F00
0007DF80
0007DF80
0007CF80
0007C380
0007C300
0007C300
0007C600
07C7CC00
1FE7C000
3FF7C000
7FFFC000
7E1FC000
7C0FC000
780FC000
F807C000
F807C000
F807C000
F807C000
F807C000
7C0FC000
7C0FC000
7FFFC000
3FF7C000
1FF7C000
0FC7C000
ENDCHAR
STARTCHAR 0110
ENCODING 272
SWIDTH 690 0
DWIDTH 23 0
BBX 21 23 1 0
BITMAP
3FFE00
3FFF80
3FFFC0
3FFFE0
3C07F0
3C01F0
3C01F8
3C00F8
3C00F8
3C00F8
FFC0F8
FFC0F8
FFC0F8
3C00F8
3C00F8
3C00F8
3C01F8
3C03F0
3C0FF0
3FFFE0
3FFFC0
3FFF00
3FFC00
ENDCHAR
STARTCHAR 0111
ENCODING 273
SWIDTH 600 0
DWIDTH 20 0
BBX 20 25 1 0
BITMAP
0007C0
0007C0
007FF0
007FF0
007FF0
0007C0
0007C0
07C7C0
1FE7C0
3FF7C0
7FFFC0
7E1FC0
7C0FC0
780FC0
F807C0
F807C0
F807C0
F807C0
F807C0
7C0FC0
7C0FC0
7FFFC0
3FF7C0
1FF7C0
0FC7C0
ENDCHAR
STARTCHAR 0112
ENCODING 274
SWIDTH 540 0
DWIDTH 18 0
BBX 15 28 2 0
BITMAP
3FF8
3FF8
0000
0000
0000
FFFE
FFFE
FFFE
FFFE
F800
F800
F800
F800
F800
FFFC
FFFC
FFFC
FFFC
F800
F800
F800
F800
F800
F800
FFFE
FFFE
FFFE
FFFE
ENDCHAR
STARTCHAR 0113
ENCODING 275
SWIDTH 570 0
DWIDTH 19 0
BBX 17 23 1 0
BITMAP
1FFC00
1FFC00
000000
000000
000000
03F000
0FFC00
1FFE00
3F3F00
7C0F00
780F00
780F80
FFFF80
FFFF80
FFFF80
F80000
780000
780F80
7C1F00
3F7F00
3FFE00
1FFC00
07F800
ENDCHAR
STARTCHAR 0116
ENCODING 278
SWIDTH 540 0
DWIDTH 18 0
BBX 15 31 2 1
BITMAP
03C0
07C0
07C0
07C0
0100
0000
0000
0000
FFFE
FFFE
FFFE
FFFE
F800
F800
F800
F800
F800
FFFC
FFFC
FFFC
FFFC
F800
F800
F800
F800
F800
F800
FFFE
FFFE
FFFE
FFFE
ENDCHAR
STARTCHAR 0117
ENCODING 279
SWIDTH 570 0
DWIDTH 19 0
BBX 17 26 1 0
BITMAP
00C000
01E000
03E000
03E000
01E000
000000
000000
000000
03F000
0FFC00
1FFE00
3F3F00
7C0F00
780F00
780F80
FFFF80
FFFF80
FFFF80
F80000
780000
780F80
7C1F00
3F7F00
3FFE00
1FFC00
07F800
ENDCHAR
STARTCHAR 0118
ENCODING 280
SWIDTH 540 0
DWIDTH 18 0
BBX 17 29 2 -6
BITMAP
FFFE00
FFFE00
FFFE00
FFFE00
F80000
F80000
F80000
F80000
F80000
FFFC00
FFFC00
FFFC00
FFFC00
F80000
F80000
F80000
F80000
F80000
F80000
FFFE00
FFFE00
FFFE00
FFFE00
001E00
001C00
001C00
001F80
001F80
000780
ENDCHAR
STARTCHAR 0119
ENCODING 281
SWIDTH 570 0
DWIDTH 19 0
BBX 17 24 1 -6
BITMAP
03F000
0FFC00
1FFE00
3F3F00
7C0F00
780F00
780F80
FFFF80
FFFF80
FFFF80
F80000
780000
780F80
7C1F00
3F7F00
3FFE00
1FFC00
07F800
03C000
038000
070000
07C000
03E000
01E000
ENDCHAR
STARTCHAR 011A
ENCODING 282
SWIDTH 540 0
DWIDTH 18 0
BBX 15 31 2 0
BITMAP
783C
3C78
1EF0
0FE0
07C0
0380
0000
0000
FFFE
FFFE
FFFE
FFFE
F800
F800
F800
F800
F800
FFFC
FFFC
FFFC
FFFC
F800
F800
F800
F800
F800
F800
FFFE
FFFE
FFFE
FFFE
ENDCHAR
STARTCHAR 011B
ENCODING 283
SWIDTH 570 0
DWIDTH 19 0
BBX 17 25 1 0
BITMAP
1E1E00
0F3C00
07F800
07F000
03E000
000000
000000
03F000
0FFC00
1FFE00
3F3F00
7C0F00
780F00
780F80
FFFF80
FFFF80
FFFF80
F80000
780000
780F80
7C1F00
3F7F00
3FFE00
1FFC00
07F800
ENDCHAR
STARTCHAR 011E
ENCODING 286
SWIDTH 690 0
DWIDTH 23 0
BBX 21 30 1 0
BITMAP
078780
03CF00
01FE00
00FC00
000000
000000
007C00
03FF00
0FFFC0
1FFFE0
1F87E0
3F01F0
3E01F0
7C00F8
7C0000
780000
780000
F80FF8
F80FF8
780FF8
780FF8
780078
7C00F8
7C00F8
3E00F8
3F01F8
1FEFF8
0FFFB8
07FF38
01FC38
ENDCHAR
STARTCHAR 011F
ENCODING 287
SWIDTH 600 0
DWIDTH 20 0
BBX 18 31 1 -7
BITMAP
1E1E00
0FFC00
07F800
01F000
000000
000000
07C7C0
1FE7C0
3FF7C0
3FFFC0
7E1FC0
7C0FC0
7807C0
F807C0
F807C0
F807C0
F807C0
7C0FC0
7C0FC0
7E1FC0
3FFFC0
3FF7C0
1FE7C0
07C7C0
000780
000F80
000F80
03FF80
03FF00
03FE00
03FC00
ENDCHAR
STARTCHAR 0120
ENCODING 288
SWIDTH 690 0
DWIDTH 23 0
BBX 21 31 1 1
BITMAP
007800
00FC00
00FC00
007800
003000
000000
000000
007C00
03FF00
0FFFC0
1FFFE0
1F87E0
3F01F0
3E01F0
7C00F8
7C0000
780000
780000
F80FF8
F80FF8
780FF8
780FF8
780078
7C00F8
7C00F8
3E00F8
3F01F8
1FEFF8
0FFFB8
07FF38
01FC38
ENDCHAR
STARTCHAR 0121
ENCODING 289
SWIDTH 600 0
DWIDTH 20 0
BBX 18 33 1 -7
BITMAP
00C000
01E000
01F000
01F000
01E000
000000
000000
000000
07C7C0
1FE7C0
3FF7C0
3FFFC0
7E1FC0
7C0FC0
7807C0
F807C0
F807C0
F807C0
F807C0
7C0FC0
7C0FC0
7E1FC0
3FFFC0
3FF7C0
1FE7C0
07C7C0
000780
000F80
000F80
03FF80
03FF00
03FE00
03FC00
ENDCHAR
STARTCHAR 0126
ENCODING 294
SWIDTH 690 0
DWIDTH 23 0
BBX 23 23 0 0
BITMAP
3E00F8
3E00F8
3E00F8
FFFFFE
FFFFFE
FFFFFE
3E00F8
3E00F8
3E00F8
3FFFF8
3FFFF8
3FFFF8
3FFFF8
3E00F8
3E00F8
3E00F8
3E00F8
3E00F8
3E00F8
3E00F8
3E00F8
3E00F8
3E00F8
ENDCHAR
STARTCHAR 0127
ENCODING 295
SWIDTH 600 0
DWIDTH 20 0
BBX 19 25 0 0
BITMAP
3E0000
3E0000
FFE000
FFE000
FFE000
3E0000
3E0000
3E3F00
3E7F80
3EFFC0
3FFFC0
3F87E0
3F03E0
3E03E0
3E03E0
3E03E0
3E03E0
3E03E0
3E03E0
3E03E0
3E03E0
3E03E0
3E03E0
3E03E0
3E03E0
ENDCHAR
STARTCHAR 0128
ENCODING 296
SWIDTH 240 0
DWIDTH 8 0
BBX 11 31 -1 0
BITMAP
10E0
7EE0
FFE0
EFC0
E380
0000
0000
0000
1F00
1F00
1F00
1F00
1F00
1F00
1F00
1F00
1F00
1F00
1F00
1F00
1F00
1F00
1F00
1F00
1F00
1F00
1F00
1F00
1F00
1F00
1F00
ENDCHAR
STARTCHAR 0129
ENCODING 297
SWIDTH 270 0
DWIDTH 9 0
BBX 11 25 -1 0
BITMAP
3860
7FE0
7FE0
E7C0
E000
0000
0000
1F00
1F00
1F00
1F00
1F00
1F00
1F00
1F00
1F00
1F00
1F00
1F00
1F00
1F00
1F00
1F00
1F00
1F00
ENDCHAR
STARTCHAR 012A
ENCODING 298
SWIDTH 240 0
DWIDTH 8 0
BBX 11 28 -1 0
BITMAP
FFE0
FFE0
0000
0000
0000
1F00
1F00
1F00
1F00
1F00
1F00
1F00
1F00
1F00
1F00
1F00
1F00
1F00
1F00
1F00
1F00
1F00
1F00
1F00
1F00
1F00
1F00
1F00
ENDCHAR
STARTCHAR 012B
ENCODING 299
SWIDTH 270 0
DWIDTH 9 0
BBX 11 23 -1 0
BITMAP
FFE0
FFE0
0000
0000
0000
1F00
1F00
1F00
1F00
1F00
1F00
1F00
1F00
1F00
1F00
1F00
1F00
1F00
1F00
1F00
1F00
1F00
1F00
ENDCHAR
STARTCHAR 012E
ENCODING 302
SWIDTH 240 0
DWIDTH 8 0
BBX 6 29 2 -6
BITMAP
F8
F8
F8
F8
F8
F8
F8
F8
F8
F8
F8
F8
F8
F8
F8
F8
F8
F8
F8
F8
F8
F8
F8
70
E0
E0
FC
7C
3C
ENDCHAR
STARTCHAR 012F
ENCODING 303
SWIDTH 270 0
DWIDTH 9 0
BBX 6 32 2 -6
BITMAP
30
F8
F8
F8
78
00
00
00
F8
F8
F8
F8
F8
F8
F8
F8
F8
F8
F8
F8
F8
F8
F8
F8
F8
F8
70
E0
F0
FC
7C
3C
ENDCHAR
STARTCHAR 0130
ENCODING 304
SWIDTH 240 0
DWIDTH 8 0
BBX 5 32 2 0
BITMAP
20
F0
F8
F8
F8
20
00
00
00
F8
F8
F8
F8
F8
F8
F8
F8
F8
F8
F8
F8
F8
F8
F8
F8
F8
F8
F8
F8
F8
F8
F8
ENDCHAR
STARTCHAR 0131
ENCODING 305
SWIDTH 270 0
DWIDTH 9 0
BBX 5 18 2 0
BITMAP
F8
F8
F8
F8
F8
F8
F8
F8
F8
F8
F8
F8
F8
F8
F8
F8
F8
F8
ENDCHAR
STARTCHAR 0139
ENCODING 313
SWIDTH 510 0
DWIDTH 17 0
BBX 15 32 2 0
BITMAP
1F00
1E00
3E00
3C00
7800
7800
0000
0000
0000
F800
F800
F800
F800
F800
F800
F800
F800
F800
F800
F800
F800
F800
F800
F800
F800
F800
F800
F800
FFFE
FFFE
FFFE
FFFE
ENDCHAR
STARTCHAR 013A
ENCODING 314
SWIDTH 330 0
DWIDTH 11 0
BBX 8 34 2 0
BITMAP
0F
1F
1E
3C
3C
78
70
00
00
F8
F8
F8
F8
F8
F8
F8
F8
F8
F8
F8
F8
F8
F8
F8
F8
F8
F8
F8
F8
F8
FC
FF
7F
3F
ENDCHAR
STARTCHAR 013D
ENCODING 317
SWIDTH 510 0
DWIDTH 17 0
BBX 19 31 -2 0
BITMAP
F0F000
79F000
3FE000
1FC000
0F8000
0F0000
000000
000000
0F8000
0F8000
0F8000
0F8000
0F8000
0F8000
0F8000
0F8000
0F8000
0F8000
0F8000
0F8000
0F8000
0F8000
0F8000
0F8000
0F8000
0F8000
0F8000
0FFFE0
0FFFE0
0FFFE0
0FFFE0
ENDCHAR
STARTCHAR 013E
ENCODING 318
SWIDTH 420 0
DWIDTH 14 0
BBX 12 27 2 0
BITMAP
01E0
03F0
FBF0
FBF0
F9F0
F830
F830
F860
F8E0
F980
F800
F800
F800
F800
F800
F800
F800
F800
F800
F800
F800
F800
F800
FC00
FF00
7F00
3F00
ENDCHAR
STARTCHAR 0143
ENCODING 323
SWIDTH 690 0
DWIDTH 23 0
BBX 19 32 2 0
BITMAP
001E00
003E00
003C00
007800
007800
00F000
000000
000000
000000
FC01E0
FC01E0
FE01E0
FF01E0
FF01E0
FF81E0
FF81E0
FFC1E0
FFC1E0
FBE1E0
F9F1E0
F9F1E0
F8F9E0
F8F9E0
F87DE0
F83FE0
F83FE0
F81FE0
F81FE0
F80FE0
F807E0
F807E0
F803E0
ENDCHAR
STARTCHAR 0144
ENCODING 324
SWIDTH 600 0
DWIDTH 20 0
BBX 16 27 2 0
BITMAP
003C
0078
0078
00F0
01F0
01E0
03C0
0000
0000
F9F8
FBFC
FFFE
FFFE
FC3F
F81F
F81F
F80F
F80F
F80F
F80F
F80F
F80F
F80F
F80F
F80F
F80F
F80F
ENDCHAR
STARTCHAR 0147
ENCODING 327
SWIDTH 690 0
DWIDTH 23 0
BBX 19 31 2 0
BITMAP
1F0F00
0F9E00
07BC00
03F800
01F000
00E000
000000
000000
FC01E0
FC01E0
FE01E0
FF01E0
FF01E0
FF81E0
FF81E0
FFC1E0
FFC1E0
FBE1E0
F9F1E0
F9F1E0
F8F9E0
F8F9E0
F87DE0
F83FE0
F83FE0
F81FE0
F81FE0
F80FE0
F807E0
F807E0
F803E0
ENDCHAR
STARTCHAR 0148
ENCODING 328
SWIDTH 600 0
DWIDTH 20 0
BBX 16 25 2 0
BITMAP
3C3C
1E78
0FF0
07E0
03C0
0000
0000
F9F8
FBFC
FFFE
FFFE
FC3F
F81F
F81F
F80F
F80F
F80F
F80F
F80F
F80F
F80F
F80F
F80F
F80F
F80F
ENDCHAR
STARTCHAR 014C
ENCODING 332
SWIDTH 720 0
DWIDTH 24 0
BBX 22 28 1 0
BITMAP
03FF00
03FF00
000000
000000
00F800
03FF00
0FFFC0
1FFFE0
1FCFF0
3F03F0
7E01F8
7C00F8
7C00F8
7C00F8
F8007C
F8007C
F8007C
F8007C
F8007C
7C00F8
7C00F8
7E00F8
3E01F0
3F03F0
1FFFE0
0FFFC0
07FF80
01FE00
ENDCHAR
STARTCHAR 014D
ENCODING 333
SWIDTH 570 0
DWIDTH 19 0
BBX 17 23 1 0
BITMAP
1FFC00
1FFC00
000000
000000
000000
03F000
0FFC00
1FFE00
3FFF00
7E1F00
7C0F80
780F80
F80780
F80780
F80780
F80780
780F80
7C0F80
7C1F00
3FFF00
3FFE00
1FFC00
07F800
ENDCHAR
STARTCHAR 0152
ENCODING 338
SWIDTH 960 0
DWIDTH 32 0
BBX 30 23 1 0
BITMAP
03FFFFFC
07FFFFFC
1FFFFFFC
1FFFFFFC
3F03E000
7E03E000
7C03E000
7C03E000
F803E000
F803FFF0
F803FFF0
F803FFF0
F803FFF0
F803E000
7C03E000
7C03E000
7C03E000
3E03E000
3F83E000
1FFFFFFC
0FFFFFFC
07FFFFFC
01FFFFFC
ENDCHAR
STARTCHAR 0153
ENCODING 339
SWIDTH 930 0
DWIDTH 31 0
BBX 29 18 1 0
BITMAP
03E03F00
0FF87FC0
1FFCFFE0
3FFFF3F0
7E1FC0F0
7C0FC0F8
780F8078
F80FFFF8
F80FFFF8
F807FFF8
F80F8000
780F8000
780FC078
7C1FC0F8
3F7FFBF0
3FFFFFE0
1FFCFFC0
07F03F80
ENDCHAR
STARTCHAR 0154
ENCODING 340
SWIDTH 600 0
DWIDTH 20 0
BBX 17 32 2 0
BITMAP
007800
00F800
00F000
01E000
01E000
03C000
000000
000000
000000
FFF800
FFFC00
FFFE00
FFFF00
F81F00
F80F80
F80F80
F80F80
F80F80
F80F80
F83F00
FFFF00
FFFE00
FFF800
FFF000
F8F800
F87C00
F87C00
F83E00
F83E00
F81F00
F80F00
F80F80
ENDCHAR
STARTCHAR 0155
ENCODING 341
SWIDTH 360 0
DWIDTH 12 0
BBX 11 27 2 0
BITMAP
01E0
03C0
07C0
0780
0F00
0F00
1E00
0000
0000
F860
FBE0
FFE0
FFE0
FFC0
FC00
F800
F800
F800
F800
F800
F800
F800
F800
F800
F800
F800
F800
ENDCHAR
STARTCHAR 0158
ENCODING 344
SWIDTH 600 0
DWIDTH 20 0
BBX 17 31 2 0
BITMAP
7C3C00
3E7800
1EF000
0FE000
07C000
038000
000000
000000
FFF800
FFFC00
FFFE00
FFFF00
F81F00
F80F80
F80F80
F80F80
F80F80
F80F80
F83F00
FFFF00
FFFE00
FFF800
FFF000
F8F800
F87C00
F87C00
F83E00
F83E00
F81F00
F80F00
F80F80
ENDCHAR
STARTCHAR 0159
ENCODING 345
SWIDTH 360 0
DWIDTH 12 0
BBX 12 25 1 0
BITMAP
F0F0
79E0
3FC0
1F80
0F00
0000
0000
7C30
7DF0
7FF0
7FF0
7FE0
7E00
7C00
7C00
7C00
7C00
7C00
7C00
7C00
7C00
7C00
7C00
7C00
7C00
ENDCHAR
STARTCHAR 015A
ENCODING 346
SWIDTH 600 0
DWIDTH 20 0
BBX 18 32 1 0
BITMAP
001F00
001E00
003C00
003C00
007800
007800
000000
000000
01F000
0FFC00
1FFE00
3FFF00
7E1F80
7C0F80
7C0FC0
7C0FC0
7C0000
7F0000
3FF000
1FFC00
0FFF00
03FF80
001F80
000FC0
FC07C0
FC07C0
7C07C0
7E0F80
3FFF80
3FFF00
1FFE00
07FC00
ENDCHAR
STARTCHAR 015B
ENCODING 347
SWIDTH 480 0
DWIDTH 16 0
BBX 14 27 1 0
BITMAP
0078
00F8
00F0
01E0
01E0
03C0
0000
0000
0000
0FC0
3FF0
3FF8
7CFC
787C
783C
7800
7F80
3FF0
1FF8
03FC
007C
F83C
F83C
7C7C
7FFC
3FF8
0FE0
ENDCHAR
STARTCHAR 015E
ENCODING 350
SWIDTH 600 0
DWIDTH 20 0
BBX 18 32 1 -8
BITMAP
01F000
0FFC00
1FFE00
3FFF00
7E1F80
7C0F80
7C0FC0
7C0FC0
7C0000
7F0000
3FF000
1FFC00
0FFF00
03FF80
001F80
000FC0
FC07C0
FC07C0
7C07C0
7E0F80
3FFF80
3FFF00
1FFE00
07F800
00C000
00E000
01F800
003C00
000C00
001C00
01F800
01F000
ENDCHAR
STARTCHAR 015F
ENCODING 351
SWIDTH 480 0
DWIDTH 16 0
BBX 14 26 1 -8
BITMAP
0FC0
3FF0
3FF8
7CFC
787C
783C
7800
7F80
3FF0
1FF8
03FC
007C
F83C
F83C
7C7C
7FFC
3FF8
0FE0
0380
0380
03F0
0070
0030
0070
03F0
03E0
ENDCHAR
STARTCHAR 0160
ENCODING 352
SWIDTH 600 0
DWIDTH 20 0
BBX 18 31 1 0
BITMAP
0F0F00
079F00
03FE00
01FC00
01F800
00F000
000000
01F000
0FFC00
1FFE00
3FFF00
7E1F80
7C0F80
7C0FC0
7C0FC0
7C0000
7F0000
3FF000
1FFC00
0FFF00
03FF80
001F80
000FC0
FC07C0
FC07C0
7C07C0
7E0F80
3FFF80
3FFF00
1FFE00
07FC00
ENDCHAR
STARTCHAR 0161
ENCODING 353
SWIDTH 480 0
DWIDTH 16 0
BBX 14 25 1 0
BITMAP
7C78
1EF0
0FE0
07C0
0780
0000
0000
0FC0
3FF0
3FF8
7CFC
787C
783C
7800
7F80
3FF0
1FF8
03FC
007C
F83C
F83C
7C7C
7FFC
3FF8
0FE0
ENDCHAR
STARTCHAR 0162
ENCODING 354
SWIDTH 570 0
DWIDTH 19 0
BBX 18 31 1 -8
BITMAP
FFFFC0
FFFFC0
FFFFC0
FFFFC0
01E000
01E000
01E000
01E000
01E000
01E000
01E000
01E000
01E000
01E000
01E000
01E000
01E000
01E000
01E000
01E000
01E000
01E000
01E000
018000
01C000
03F000
007800
001800
003800
03F000
03E000
ENDCHAR
STARTCHAR 0163
ENCODING 355
SWIDTH 420 0
DWIDTH 14 0
BBX 12 31 1 -8
BITMAP
1F00
1F00
1F00
1F00
1F00
FFE0
FFE0
FFE0
FFE0
1F00
1F00
1F00
1F00
1F00
1F00
1F00
1F00
1F00
1F00
1F00
1FE0
0FE0
07E0
0300
0780
07E0
0070
0070
04F0
07E0
07C0
ENDCHAR
STARTCHAR 0164
ENCODING 356
SWIDTH 570 0
DWIDTH 19 0
BBX 18 31 1 0
BITMAP
1E1E00
0F3C00
0FF800
07F000
03F000
01E000
000000
000000
FFFFC0
FFFFC0
FFFFC0
FFFFC0
01E000
01E000
01E000
01E000
01E000
01E000
01E000
01E000
01E000
01E000
01E000
01E000
01E000
01E000
01E000
01E000
01E000
01E000
01E000
ENDCHAR
STARTCHAR 0165
ENCODING 357
SWIDTH 540 0
DWIDTH 18 0
BBX 17 27 1 0
BITMAP
000F00
000F80
001F80
000F80
1F0780
1F0180
1F0180
1F0180
1F0700
FFE600
FFE000
FFE000
FFE000
1F0000
1F0000
1F0000
1F0000
1F0000
1F0000
1F0000
1F0000
1F0000
1F0000
1F0000
1FE000
0FE000
07E000
ENDCHAR
STARTCHAR 0166
ENCODING 358
SWIDTH 570 0
DWIDTH 19 0
BBX 18 23 1 0
BITMAP
FFFFC0
FFFFC0
FFFFC0
FFFFC0
01E000
01E000
01E000
01E000
01E000
3FFF00
3FFF00
3FFF00
01E000
01E000
01E000
01E000
01E000
01E000
01E000
01E000
01E000
01E000
01E000
ENDCHAR
STARTCHAR 0167
ENCODING 359
SWIDTH 420 0
DWIDTH 14 0
BBX 11 23 1 0
BITMAP
1F00
1F00
1F00
1F00
1F00
FFE0
FFE0
FFE0
FFE0
1F00
1F00
1F00
FFE0
FFE0
FFE0
1F00
1F00
1F00
1F00
1F80
1FE0
0FE0
07E0
ENDCHAR
STARTCHAR 0168
ENCODING 360
SWIDTH 660 0
DWIDTH 22 0
BBX 19 31 2 0
BITMAP
030E00
07CE00
0FFC00
0EFC00
0C3800
000000
000000
000000
F003E0
F003E0
F003E0
F003E0
F003E0
F003E0
F003E0
F003E0
F003E0
F003E0
F003E0
F003E0
F003E0
F003E0
F803E0
F803E0
F803E0
FC07C0
7E0FC0
7FFF80
3FFF80
1FFE00
07FC00
ENDCHAR
STARTCHAR 0169
ENCODING 361
SWIDTH 570 0
DWIDTH 19 0
BBX 16 25 2 0
BITMAP
0E18
1FF8
3FF8
39F0
3800
0000
0000
F81F
F81F
F81F
F81F
F81F
F81F
F81F
F81F
F81F
F81F
F81F
F81F
F81F
F83F
FFFF
7FFF
7FDF
1F9F
ENDCHAR
STARTCHAR 016A
ENCODING 362
SWIDTH 660 0
DWIDTH 22 0
BBX 19 28 2 0
BITMAP
0FFE00
0FFE00
000000
000000
000000
F003E0
F003E0
F003E0
F003E0
F003E0
F003E0
F003E0
F003E0
F003E0
F003E0
F003E0
F003E0
F003E0
F003E0
F803E0
F803E0
F803E0
FC07C0
7E0FC0
7FFF80
3FFF80
1FFE00
07FC00
ENDCHAR
STARTCHAR 016B
ENCODING 363
SWIDTH 570 0
DWIDTH 19 0
BBX 16 23 2 0
BITMAP
3FF8
3FF8
0000
0000
0000
F81F
F81F
F81F
F81F
F81F
F81F
F81F
F81F
F81F
F81F
F81F
F81F
F81F
F83F
FFFF
7FFF
7FDF
1F9F
ENDCHAR
STARTCHAR 016E
ENCODING 366
SWIDTH 660 0
DWIDTH 22 0
BBX 19 32 2 0
BITMAP
01F000
03F000
031800
031800
03F000
01E000
000000
000000
000000
F003E0
F003E0
F003E0
F003E0
F003E0
F003E0
F003E0
F003E0
F003E0
F003E0
F003E0
F003E0
F003E0
F003E0
F803E0
F803E0
F803E0
FC07C0
7E0FC0
7FFF80
3FFF80
1FFE00
07FC00
ENDCHAR
STARTCHAR 016F
ENCODING 367
SWIDTH 570 0
DWIDTH 19 0
BBX 16 27 2 0
BITMAP
0180
07C0
0EE0
0C60
0E60
07C0
0380
0000
0000
F81F
F81F
F81F
F81F
F81F
F81F
F81F
F81F
F81F
F81F
F81F
F81F
F81F
F83F
FFFF
7FFF
7FDF
1F9F
ENDCHAR
STARTCHAR 0172
ENCODING 370
SWIDTH 660 0
DWIDTH 22 0
BBX 19 29 2 -6
BITMAP
F003E0
F003E0
F003E0
F003E0
F003E0
F003E0
F003E0
F003E0
F003E0
F003E0
F003E0
F003E0
F003E0
F003E0
F803E0
F803E0
F803E0
FC07C0
7E0FC0
7FFF80
3FFF80
1FFF00
07FC00
01E000
01C000
01C000
01E800
01F800
00F800
ENDCHAR
STARTCHAR 0173
ENCODING 371
SWIDTH 570 0
DWIDTH 19 0
BBX 17 24 2 -6
BITMAP
F81F00
F81F00
F81F00
F81F00
F81F00
F81F00
F81F00
F81F00
F81F00
F81F00
F81F00
F81F00
F81F00
F83F00
FFFF00
7FFF00
7FDF00
1F9F00
000E00
001C00
001C00
001F80
000F80
000780
ENDCHAR
STARTCHAR 0174
ENCODING 372
SWIDTH 990 0
DWIDTH 33 0
BBX 32 31 1 0
BITMAP
0003C000
0007C000
000FE000
001EF000
003C7800
00783C00
00000000
00000000
F007C01F
F007C01E
F807C01E
F80FE03E
780FE03E
780FE03C
7C1FF03C
7C1FF07C
3C1EF07C
3C1EF878
3E3EF878
3E3C78F8
1E3C7CF8
1E7C7CF0
1E7C3CF0
1F783DF0
0FF83FF0
0FF81FE0
0FF01FE0
0FF01FE0
07F01FC0
07E00FC0
07E00FC0
ENDCHAR
STARTCHAR 0175
ENCODING 373
SWIDTH 810 0
DWIDTH 27 0
BBX 26 25 1 0
BITMAP
001E0000
003F0000
007F8000
00F7C000
01E3E000
00000000
00000000
F01E07C0
F03E0780
F03E0780
F83F0780
783F0780
787F0F00
787F8F00
3C7F8F00
3CF78F00
3CF79E00
3CF3DE00
1EF3DE00
1FE3DE00
1FE3FC00
1FE1FC00
0FC1FC00
0FC1FC00
0FC0F800
ENDCHAR
STARTCHAR 0176
ENCODING 374
SWIDTH 630 0
DWIDTH 21 0
BBX 19 31 1 0
BITMAP
00F000
01F800
03FC00
07BC00
0F1E00
1F0F00
000000
000000
F803E0
7C03E0
7C03C0
3C07C0
3E0780
1E0F80
1F0F00
0F1F00
0F9E00
07BE00
07FC00
03FC00
03F800
01F800
01F000
01F000
01F000
01F000
01F000
01F000
01F000
01F000
01F000
ENDCHAR
STARTCHAR 0177
ENCODING 375
SWIDTH 540 0
DWIDTH 18 0
BBX 17 32 1 -7
BITMAP
03C000
07E000
0FF000
1F7800
1E3C00
200000
000000
F00F80
F80F80
F80F00
781F00
7C1E00
3C1E00
3C3E00
3E3C00
1E3C00
1E7C00
1F7800
0F7800
0FF000
07F000
07F000
07E000
03E000
03C000
03C000
07C000
078000
0F8000
FF0000
FF0000
FC0000
ENDCHAR
STARTCHAR 0178
ENCODING 376
SWIDTH 630 0
DWIDTH 21 0
BBX 19 31 1 1
BITMAP
0F0F00
1F0F80
1F0F80
0F0F00
040600
000000
000000
000000
F803E0
7C03E0
7C03C0
3C07C0
3E0780
1E0F80
1F0F00
0F1F00
0F9E00
07BE00
07FC00
03FC00
03F800
01F800
01F000
01F000
01F000
01F000
01F000
01F000
01F000
01F000
01F000
ENDCHAR
STARTCHAR 0179
ENCODING 377
SWIDTH 600 0
DWIDTH 20 0
BBX 17 32 2 0
BITMAP
003C00
007800
00F800
00F000
01E000
01E000
000000
000000
000000
FFFF80
FFFF80
FFFF80
FFFF80
001F00
003F00
007E00
007C00
00F800
01F000
03F000
07E000
07C000
0F8000
1F0000
3F0000
7E0000
7C0000
F80000
FFFF80
FFFF80
FFFF80
FFFF80
ENDCHAR
STARTCHAR 017A
ENCODING 378
SWIDTH 480 0
DWIDTH 16 0
BBX 13 27 2 0
BITMAP
00F8
00F0
01E0
03E0
03C0
0780
0780
0000
0000
FFF8
FFF8
FFF8
FFF8
00F8
01F0
03E0
07C0
0780
0F80
1F00
3E00
7C00
F800
FFF8
FFF8
FFF8
FFF8
ENDCHAR
STARTCHAR 017B
ENCODING 379
SWIDTH 600 0
DWIDTH 20 0
BBX 17 32 2 0
BITMAP
008000
03C000
03E000
03E000
03E000
008000
000000
000000
000000
FFFF80
FFFF80
FFFF80
FFFF80
001F00
003F00
007E00
007C00
00F800
01F000
03F000
07E000
07C000
0F8000
1F0000
3F0000
7E0000
7C0000
F80000
FFFF80
FFFF80
FFFF80
FFFF80
ENDCHAR
STARTCHAR 017C
ENCODING 380
SWIDTH 480 0
DWIDTH 16 0
BBX 13 26 2 0
BITMAP
0700
0F80
0F80
0F80
0700
0000
0000
0000
FFF8
FFF8
FFF8
FFF8
00F8
01F0
03E0
07C0
0780
0F80
1F00
3E00
7C00
F800
FFF8
FFF8
FFF8
FFF8
ENDCHAR
STARTCHAR 017D
ENCODING 381
SWIDTH 600 0
DWIDTH 20 0
BBX 17 31 2 0
BITMAP
3C3E00
1E3C00
0F7800
07F000
03E000
01C000
000000
000000
FFFF80
FFFF80
FFFF80
FFFF80
001F00
003F00
007E00
007C00
00F800
01F000
03F000
07E000
07C000
0F8000
1F0000
3F0000
7E0000
7C0000
F80000
FFFF80
FFFF80
FFFF80
FFFF80
ENDCHAR
STARTCHAR 017E
ENCODING 382
SWIDTH 480 0
DWIDTH 16 0
BBX 13 25 2 0
BITMAP
F8F8
7DF0
3FE0
1FC0
0F80
0000
0000
FFF8
FFF8
FFF8
FFF8
00F8
01F0
03E0
07C0
0780
0F80
1F00
3E00
7C00
F800
FFF8
FFF8
FFF8
FFF8
ENDCHAR
STARTCHAR 01A0
ENCODING 416
SWIDTH 720 0
DWIDTH 24 0
BBX 22 27 1 0
BITMAP
000038
000038
000038
00F8F8
03FFF0
0FFFC0
1FFFE0
1FCFF0
3F03F0
7E01F8
7C00F8
7C00F8
7C00F8
F8007C
F8007C
F8007C
F8007C
F8007C
7C00F8
7C00F8
7E00F8
3E01F0
3F03F0
1FFFE0
0FFFC0
07FF80
01FE00
ENDCHAR
STARTCHAR 01A1
ENCODING 417
SWIDTH 600 0
DWIDTH 20 0
BBX 18 21 1 0
BITMAP
0001C0
0001C0
0001C0
03FFC0
0FFF80
1FFE00
3FFF00
7E1F00
7C0F80
780F80
F80780
F80780
F80780
F80780
780F80
7C0F80
7C1F00
3FFF00
3FFE00
1FFC00
07F800
ENDCHAR
STARTCHAR 01AF
ENCODING 431
SWIDTH 660 0
DWIDTH 22 0
BBX 23 27 2 0
BITMAP
00001E
00001E
00001E
00003E
F003FC
F003F0
F003E0
F003E0
F003E0
F003E0
F003E0
F003E0
F003E0
F003E0
F003E0
F003E0
F003E0
F003E0
F803E0
F803E0
F803E0
FC07C0
7E0FC0
7FFF80
3FFF80
1FFE00
07FC00
ENDCHAR
STARTCHAR 01B0
ENCODING 432
SWIDTH 570 0
DWIDTH 19 0
BBX 20 21 2 0
BITMAP
000070
000070
0000F0
F81FE0
F81FE0
F81F00
F81F00
F81F00
F81F00
F81F00
F81F00
F81F00
F81F00
F81F00
F81F00
F81F00
F83F00
FFFF00
7FFF00
7FDF00
1F9F00
ENDCHAR
STARTCHAR 02C6
ENCODING 710
SWIDTH 450 0
DWIDTH 15 0
BBX 12 5 2 20
BITMAP
1F00
1F80
3FC0
7BE0
F1F0
ENDCHAR
STARTCHAR 02C7
ENCODING 711
SWIDTH 420 0
DWIDTH 14 0
BBX 12 5 1 20
BITMAP
F8F0
7DF0
3FE0
1FC0
0F80
ENDCHAR
STARTCHAR 02D8
ENCODING 728
SWIDTH 420 0
DWIDTH 14 0
BBX 12 4 1 20
BITMAP
F0F0
7FE0
3FC0
0F80
ENDCHAR
STARTCHAR 02D9
ENCODING 729
SWIDTH 210 0
DWIDTH 7 0
BBX 5 5 1 21
BITMAP
30
78
F8
F8
78
ENDCHAR
STARTCHAR 02DA
ENCODING 730
SWIDTH 240 0
DWIDTH 8 0
BBX 7 7 1 20
BITMAP
10
7C
EC
C6
CC
7C
38
ENDCHAR
STARTCHAR 02DB
ENCODING 731
SWIDTH 240 0
DWIDTH 8 0
BBX 6 7 1 -7
BITMAP
30
70
E0
E0
FC
7C
3C
ENDCHAR
STARTCHAR 02DC
ENCODING 732
SWIDTH 390 0
DWIDTH 13 0
BBX 11 5 1 20
BITMAP
3860
7FE0
FFE0
E7C0
E000
ENDCHAR
STARTCHAR 0300
ENCODING 768
SWIDTH 0 0
DWIDTH 0 0
BBX 7 6 -8 20
BITMAP
F0
F8
78
3C
3C
1E
ENDCHAR
STARTCHAR 0301
ENCODING 769
SWIDTH 0 0
DWIDTH 0 0
BBX 7 7 -7 20
BITMAP
3E
3C
7C
78
F0
F0
60
ENDCHAR
STARTCHAR 0302
ENCODING 770
SWIDTH 0 0
DWIDTH 0 0
BBX 12 5 -12 20
BITMAP
0F00
1F80
3FC0
7BE0
F1F0
ENDCHAR
STARTCHAR 0303
ENCODING 771
SWIDTH 0 0
DWIDTH 0 0
BBX 11 5 -12 20
BITMAP
3860
7FE0
7FE0
E7C0
E000
ENDCHAR
STARTCHAR 0304
ENCODING 772
SWIDTH 0 0
DWIDTH 0 0
BBX 11 2 -14 22
BITMAP
FFE0
FFE0
ENDCHAR
STARTCHAR 0306
ENCODING 774
SWIDTH 0 0
DWIDTH 0 0
BBX 11 4 -12 20
BITMAP
E1E0
FFE0
7FC0
1F00
ENDCHAR
STARTCHAR 0307
ENCODING 775
SWIDTH 0 0
DWIDTH 0 0
BBX 5 5 -7 21
BITMAP
70
F8
F8
F8
70
ENDCHAR
STARTCHAR 0308
ENCODING 776
SWIDTH 0 0
DWIDTH 0 0
BBX 14 5 -16 21
BITMAP
3038
787C
FC7C
7C7C
7838
ENDCHAR
STARTCHAR 0309
ENCODING 777
SWIDTH 0 0
DWIDTH 0 0
BBX 9 7 -10 20
BITMAP
3F00
7F80
F380
0380
0700
0F00
1C00
ENDCHAR
STARTCHAR 030A
ENCODING 778
SWIDTH 0 0
DWIDTH 0 0
BBX 6 7 -8 20
BITMAP
30
78
EC
CC
CC
FC
78
ENDCHAR
STARTCHAR 030C
ENCODING 780
SWIDTH 0 0
DWIDTH 0 0
BBX 12 5 -14 20
BITMAP
F8F0
79F0
3FE0
1FC0
0F80
ENDCHAR
STARTCHAR 031B
ENCODING 795
SWIDTH 0 0
DWIDTH 0 0
BBX 7 6 -8 20
BITMAP
0E
0E
0E
1E
FE
F8
ENDCHAR
STARTCHAR 0323
ENCODING 803
SWIDTH 0 0
DWIDTH 0 0
BBX 5 5 -5 -8
BITMAP
60
F0
F8
F8
70
ENDCHAR
STARTCHAR 0327
ENCODING 807
SWIDTH 0 0
DWIDTH 0 0
BBX 6 8 -7 -8
BITMAP
C0
E0
F8
1C
0C
1C
F8
F8
ENDCHAR
STARTCHAR 0328
ENCODING 808
SWIDTH 0 0
DWIDTH 0 0
BBX 6 7 -7 -7
BITMAP
30
70
E0
E0
FC
FC
3C
ENDCHAR
STARTCHAR 1E80
ENCODING 7808
SWIDTH 990 0
DWIDTH 33 0
BBX 32 32 1 0
BITMAP
003C0000
001E0000
001E0000
000F0000
00078000
00078000
00000000
00000000
00000000
F007C01F
F007C01E
F807C01E
F80FE03E
780FE03E
780FE03C
7C1FF03C
7C1FF07C
3C1EF07C
3C1EF878
3E3EF878
3E3C78F8
1E3C7CF8
1E7C7CF0
1E7C3CF0
1F783DF0
0FF83FF0
0FF81FE0
0FF01FE0
0FF01FE0
07F01FC0
07E00FC0
07E00FC0
ENDCHAR
STARTCHAR 1E81
ENCODING 7809
SWIDTH 810 0
DWIDTH 27 0
BBX 26 27 1 0
BITMAP
01E00000
01F00000
00F00000
00780000
00780000
003C0000
001C0000
00000000
00000000
F01E07C0
F03E0780
F03E0780
F83F0780
783F0780
787F0F00
787F8F00
3C7F8F00
3CF78F00
3CF79E00
3CF3DE00
1EF3DE00
1FE3DE00
1FE3FC00
1FE1FC00
0FC1FC00
0FC1FC00
0FC0F800
ENDCHAR
STARTCHAR 1E82
ENCODING 7810
SWIDTH 990 0
DWIDTH 33 0
BBX 32 32 1 0
BITMAP
00007800
0000F800
0000F000
0001E000
0001E000
0003C000
00000000
00000000
00000000
F007C01F
F007C01E
F807C01E
F80FE03E
780FE03E
780FE03C
7C1FF03C
7C1FF07C
3C1EF07C
3C1EF878
3E3EF878
3E3C78F8
1E3C7CF8
1E7C7CF0
1E7C3CF0
1F783DF0
0FF83FF0
0FF81FE0
0FF01FE0
0FF01FE0
07F01FC0
07E00FC0
07E00FC0
ENDCHAR
STARTCHAR 1E83
ENCODING 7811
SWIDTH 810 0
DWIDTH 27 0
BBX 26 27 1 0
BITMAP
0003E000
0003C000
0007C000
00078000
000F0000
000F0000
001E0000
00000000
00000000
F01E07C0
F03E0780
F03E0780
F83F0780
783F0780
787F0F00
787F8F00
3C7F8F00
3CF78F00
3CF79E00
3CF3DE00
1EF3DE00
1FE3DE00
1FE3FC00
1FE1FC00
0FC1FC00
0FC1FC00
0FC0F800
ENDCHAR
STARTCHAR 1E84
ENCODING 7812
SWIDTH 990 0
DWIDTH 33 0
BBX 32 31 1 1
BITMAP
003C3C00
007C7E00
007C7E00
007C3C00
00101800
00000000
00000000
00000000
F007C01F
F007C01E
F807C01E
F80FE03E
780FE03E
780FE03C
7C1FF03C
7C1FF07C
3C1EF07C
3C1EF878
3E3EF878
3E3C78F8
1E3C7CF8
1E7C7CF0
1E7C3CF0
1F783DF0
0FF83FF0
0FF81FE0
0FF01FE0
0FF01FE0
07F01FC0
07E00FC0
07E00FC0
ENDCHAR
STARTCHAR 1E85
ENCODING 7813
SWIDTH 810 0
DWIDTH 27 0
BBX 26 26 1 0
BITMAP
00C0C000
03E1E000
03E1F000
03E1F000
01E1E000
00000000
00000000
00000000
F01E07C0
F03E0780
F03E0780
F83F0780
783F0780
787F0F00
787F8F00
3C7F8F00
3CF78F00
3CF79E00
3CF3DE00
1EF3DE00
1FE3DE00
1FE3FC00
1FE1FC00
0FC1FC00
0FC1FC00
0FC0F800
ENDCHAR
STARTCHAR 1EA0
ENCODING 7840
SWIDTH 660 0
DWIDTH 22 0
BBX 21 31 1 -8
BITMAP
00F800
00F800
01FC00
01FC00
03FC00
03FE00
03DE00
07DE00
079F00
078F00
0F8F00
0F0F80
0F0780
1F0780
1FFFC0
3FFFC0
3FFFE0
3C03E0
7C01E0
7C01F0
7801F0
F800F0
F800F8
000000
000000
000000
006000
00F000
00F800
00F800
007000
ENDCHAR
STARTCHAR 1EA1
ENCODING 7841
SWIDTH 600 0
DWIDTH 20 0
BBX 17 26 1 -8
BITMAP
07C780
1FE780
3FF780
7FFF80
7E1F80
7C0F80
F80F80
F80780
F80780
F80780
F80780
F80F80
7C0F80
7C1F80
7FFF80
3FF780
1FE780
0FC780
000000
000000
000000
00C000
01E000
01F000
01F000
00E000
ENDCHAR
STARTCHAR 1EA2
ENCODING 7842
SWIDTH 660 0
DWIDTH 22 0
BBX 21 33 1 0
BITMAP
007000
01FC00
03FC00
039C00
001C00
003C00
007800
000000
000000
000000
00F800
00F800
01FC00
01FC00
03FC00
03FE00
03DE00
07DE00
079F00
078F00
0F8F00
0F0F80
0F0780
1F0780
1FFFC0
3FFFC0
3FFFE0
3C03E0
7C01E0
7C01F0
7801F0
F800F0
F800F8
ENDCHAR
STARTCHAR 1EA3
ENCODING 7843
SWIDTH 600 0
DWIDTH 20 0
BBX 17 27 1 0
BITMAP
01F000
03F800
07F800
073800
003800
007000
00E000
000000
000000
07C780
1FE780
3FF780
7FFF80
7E1F80
7C0F80
F80F80
F80780
F80780
F80780
F80780
F80F80
7C0F80
7C1F80
7FFF80
3FF780
1FE780
0FC780
ENDCHAR
STARTCHAR 1EA4
ENCODING 7844
SWIDTH 660 0
DWIDTH 22 0
BBX 22 36 1 0
BITMAP
00003C
000078
000078
0000F0
0000E0
00F1E0
01F800
01FC00
03DE00
078F00
0F0780
000000
000000
00F800
00F800
01FC00
01FC00
03FC00
03FE00
03DE00
07DE00
079F00
078F00
0F8F00
0F0F80
0F0780
1F0780
1FFFC0
3FFFC0
3FFFE0
3C03E0
7C01E0
7C01F0
7801F0
F800F0
F800F8
ENDCHAR
STARTCHAR 1EA5
ENCODING 7845
SWIDTH 600 0
DWIDTH 20 0
BBX 22 31 1 0
BITMAP
00007C
0000F8
0000F0
0001F0
0001E0
0003C0
01E3C0
03F000
07F800
0FBC00
1F1E00
000000
000000
07C780
1FE780
3FF780
7FFF80
7E1F80
7C0F80
F80F80
F80780
F80780
F80780
F80780
F80F80
7C0F80
7C1F80
7FFF80
3FF780
1FE780
0FC780
ENDCHAR
STARTCHAR 1EA6
ENCODING 7846
SWIDTH 660 0
DWIDTH 22 0
BBX 21 36 1 0
BITMAP
001F00
000F00
000780
000780
0003C0
00F1C0
01F800
01FC00
03DE00
078F00
0F0780
000000
000000
00F800
00F800
01FC00
01FC00
03FC00
03FE00
03DE00
07DE00
079F00
078F00
0F8F00
0F0F80
0F0780
1F0780
1FFFC0
3FFFC0
3FFFE0
3C03E0
7C01E0
7C01F0
7801F0
F800F0
F800F8
ENDCHAR
STARTCHAR 1EA7
ENCODING 7847
SWIDTH 600 0
DWIDTH 20 0
BBX 17 31 1 0
BITMAP
003C00
003E00
001E00
000F00
000F00
000780
01E380
03F000
07F800
0FBC00
1F1E00
000000
000000
07C780
1FE780
3FF780
7FFF80
7E1F80
7C0F80
F80F80
F80780
F80780
F80780
F80780
F80F80
7C0F80
7C1F80
7FFF80
3FF780
1FE780
0FC780
ENDCHAR
STARTCHAR 1EA8
ENCODING 7848
SWIDTH 660 0
DWIDTH 22 0
BBX 21 37 1 0
BITMAP
0003E0
0007F0
000FF8
000E38
000070
0000F0
00F1E0
01F800
01FC00
03DE00
078F00
0F0780
000000
000000
00F800
00F800
01FC00
01FC00
03FC00
03FE00
03DE00
07DE00
079F00
078F00
0F8F00
0F0F80
0F0780
1F0780
1FFFC0
3FFFC0
3FFFE0
3C03E0
7C01E0
7C01F0
7801F0
F800F0
F800F8
ENDCHAR
STARTCHAR 1EA9
ENCODING 7849
SWIDTH 600 0
DWIDTH 20 0
BBX 20 31 1 0
BITMAP
0007C0
000FE0
001EF0
000070
0000E0
0001C0
01E380
03F000
07F800
0FBC00
1F1E00
000000
000000
07C780
1FE780
3FF780
7FFF80
7E1F80
7C0F80
F80F80
F80780
F80780
F80780
F80780
F80F80
7C0F80
7C1F80
7FFF80
3FF780
1FE780
0FC780
ENDCHAR
STARTCHAR 1EAA
ENCODING 7850
SWIDTH 660 0
DWIDTH 22 0
BBX 21 36 1 0
BITMAP
03E700
07FE00
07FE00
061C00
000000
00F000
01F800
03FC00
03DE00
078F00
0F0F80
000000
000000
00F800
00F800
01FC00
01FC00
03FC00
03FE00
03DE00
07DE00
079F00
078F00
0F8F00
0F0F80
0F0780
1F0780
1FFFC0
3FFFC0
3FFFE0
3C03E0
7C01E0
7C01F0
7801F0
F800F0
F800F8
ENDCHAR
STARTCHAR 1EAB
ENCODING 7851
SWIDTH 600 0
DWIDTH 20 0
BBX 17 31 1 0
BITMAP
030E00
07EC00
0FFC00
0EFC00
0C3000
000000
01E000
03F000
07F800
0FBC00
1F1E00
000000
000000
07C780
1FE780
3FF780
7FFF80
7E1F80
7C0F80
F80F80
F80780
F80780
F80780
F80780
F80F80
7C0F80
7C1F80
7FFF80
3FF780
1FE780
0FC780
ENDCHAR
STARTCHAR 1EAC
ENCODING 7852
SWIDTH 660 0
DWIDTH 22 0
BBX 21 39 1 -8
BITMAP
00F000
01F800
01FC00
03DE00
078F00
0F0780
000000
000000
00F800
00F800
01FC00
01FC00
03FC00
03FE00
03DE00
07DE00
079F00
078F00
0F8F00
0F0F80
0F0780
1F0780
1FFFC0
3FFFC0
3FFFE0
3C03E0
7C01E0
7C01F0
7801F0
F800F0
F800F8
000000
000000
000000
006000
00F000
00F800
00F800
007000
ENDCHAR
STARTCHAR 1EAD
ENCODING 7853
SWIDTH 600 0
DWIDTH 20 0
BBX 17 33 1 -8
BITMAP
01E000
03F000
07F800
0FBC00
1F1E00
000000
000000
07C780
1FE780
3FF780
7FFF80
7E1F80
7C0F80
F80F80
F80780
F80780
F80780
F80780
F80F80
7C0F80
7C1F80
7FFF80
3FF780
1FE780
0FC780
000000
000000
000000
00C000
01E000
01F000
01F000
00E000
ENDCHAR
STARTCHAR 1EAE
ENCODING 7854
SWIDTH 660 0
DWIDTH 22 0
BBX 21 38 1 0
BITMAP
000F00
001F00
001E00
003C00
003C00
007800
007000
000000
0F0F00
07DF00
03FE00
01F800
000000
000000
000000
00F800
00F800
01FC00
01FC00
03FC00
03FE00
03DE00
07DE00
079F00
078F00
0F8F00
0F0F80
0F0780
1F0780
1FFFC0
3FFFC0
3FFFE0
3C03E0
7C01E0
7C01F0
7801F0
F800F0
F800F8
ENDCHAR
STARTCHAR 1EAF
ENCODING 7855
SWIDTH 600 0
DWIDTH 20 0
BBX 17 32 1 0
BITMAP
003E00
003C00
007C00
007800
00F000
00F000
000000
000000
1E1E00
0FFC00
07F800
01F000
000000
000000
07C780
1FE780
3FF780
7FFF80
7E1F80
7C0F80
F80F80
F80780
F80780
F80780
F80780
F80F80
7C0F80
7C1F80
7FFF80
3FF780
1FE780
0FC780
ENDCHAR
STARTCHAR 1EB0
ENCODING 7856
SWIDTH 660 0
DWIDTH 22 0
BBX 21 38 1 0
BITMAP
0F8000
07C000
03C000
03E000
01E000
00F000
00F000
000000
0F0700
07DF00
03FE00
01F800
000000
000000
000000
00F800
00F800
01FC00
01FC00
03FC00
03FE00
03DE00
07DE00
079F00
078F00
0F8F00
0F0F80
0F0780
1F0780
1FFFC0
3FFFC0
3FFFE0
3C03E0
7C01E0
7C01F0
7801F0
F800F0
F800F8
ENDCHAR
STARTCHAR 1EB1
ENCODING 7857
SWIDTH 600 0
DWIDTH 20 0
BBX 17 32 1 0
BITMAP
0F0000
0F8000
078000
03C000
03C000
01E000
000000
000000
0E1E00
0FFC00
07FC00
01F000
000000
000000
07C780
1FE780
3FF780
7FFF80
7E1F80
7C0F80
F80F80
F80780
F80780
F80780
F80780
F80F80
7C0F80
7C1F80
7FFF80
3FF780
1FE780
0FC780
ENDCHAR
STARTCHAR 1EB2
ENCODING 7858
SWIDTH 660 0
DWIDTH 22 0
BBX 21 38 1 0
BITMAP
01F800
03FC00
03DC00
001C00
001C00
003800
00F000
000000
0F0F00
07DF00
03FE00
01F800
000000
000000
000000
00F800
00F800
01FC00
01FC00
03FC00
03FE00
03DE00
07DE00
079F00
078F00
0F8F00
0F0F80
0F0780
1F0780
1FFFC0
3FFFC0
3FFFE0
3C03E0
7C01E0
7C01F0
7801F0
F800F0
F800F8
ENDCHAR
STARTCHAR 1EB3
ENCODING 7859
SWIDTH 600 0
DWIDTH 20 0
BBX 17 32 1 0
BITMAP
03F000
07F800
073800
003800
007800
00F000
000000
000000
1E1E00
0FFC00
07F800
01F000
000000
000000
07C780
1FE780
3FF780
7FFF80
7E1F80
7C0F80
F80F80
F80780
F80780
F80780
F80780
F80F80
7C0F80
7C1F80
7FFF80
3FF780
1FE780
0FC780
ENDCHAR
STARTCHAR 1EB4
ENCODING 7860
SWIDTH 660 0
DWIDTH 22 0
BBX 21 36 1 0
BITMAP
03C700
07FE00
07FE00
063E00
000000
000000
0F0F00
07DF00
03FE00
01F800
000000
000000
000000
00F800
00F800
01FC00
01FC00
03FC00
03FE00
03DE00
07DE00
079F00
078F00
0F8F00
0F0F80
0F0780
1F0780
1FFFC0
3FFFC0
3FFFE0
3C03E0
7C01E0
7C01F0
7801F0
F800F0
F800F8
ENDCHAR
STARTCHAR 1EB5
ENCODING 7861
SWIDTH 600 0
DWIDTH 20 0
BBX 17 30 1 0
BITMAP
07CE00
0FFC00
0FFC00
0C3800
000000
000000
1E1E00
0FFC00
07F800
01F000
000000
000000
07C780
1FE780
3FF780
7FFF80
7E1F80
7C0F80
F80F80
F80780
F80780
F80780
F80780
F80F80
7C0F80
7C1F80
7FFF80
3FF780
1FE780
0FC780
ENDCHAR
STARTCHAR 1EB6
ENCODING 7862
SWIDTH 660 0
DWIDTH 22 0
BBX 21 38 1 -8
BITMAP
0F0F00
07DF00
03FE00
01F800
000000
000000
000000
00F800
00F800
01FC00
01FC00
03FC00
03FE00
03DE00
07DE00
079F00
078F00
0F8F00
0F0F80
0F0780
1F0780
1FFFC0
3FFFC0
3FFFE0
3C03E0
7C01E0
7C01F0
7801F0
F800F0
F800F8
000000
000000
000000
006000
00F000
00F800
00F800
007000
ENDCHAR
STARTCHAR 1EB7
ENCODING 7863
SWIDTH 600 0
DWIDTH 20 0
BBX 17 32 1 -8
BITMAP
1E1E00
0FFC00
07F800
01F000
000000
000000
07C780
1FE780
3FF780
7FFF80
7E1F80
7C0F80
F80F80
F80780
F80780
F80780
F80780
F80F80
7C0F80
7C1F80
7FFF80
3FF780
1FE780
0FC780
000000
000000
000000
00C000
01E000
01F000
01F000
00E000
ENDCHAR
STARTCHAR 1EB8
ENCODING 7864
SWIDTH 540 0
DWIDTH 18 0
BBX 15 31 2 -8
BITMAP
FFFE
FFFE
FFFE
FFFE
F800
F800
F800
F800
F800
FFFC
FFFC
FFFC
FFFC
F800
F800
F800
F800
F800
F800
FFFE
FFFE
FFFE
FFFE
0000
0000
0000
0180
07C0
07C0
07C0
0380
ENDCHAR
STARTCHAR 1EB9
ENCODING 7865
SWIDTH 570 0
DWIDTH 19 0
BBX 17 26 1 -8
BITMAP
03F000
0FFC00
1FFE00
3F3F00
7C0F00
780F00
780F80
FFFF80
FFFF80
FFFF80
F80000
780000
780F80
7C1F00
3F7F00
3FFE00
1FFC00
07F800
000000
000000
000000
00C000
01E000
03E000
01E000
01C000
ENDCHAR
STARTCHAR 1EBA
ENCODING 7866
SWIDTH 540 0
DWIDTH 18 0
BBX 15 33 2 0
BITMAP
0380
0FE0
1FF0
1E70
0070
00E0
03C0
0000
0000
0000
FFFE
FFFE
FFFE
FFFE
F800
F800
F800
F800
F800
FFFC
FFFC
FFFC
FFFC
F800
F800
F800
F800
F800
F800
FFFE
FFFE
FFFE
FFFE
ENDCHAR
STARTCHAR 1EBB
ENCODING 7867
SWIDTH 570 0
DWIDTH 19 0
BBX 17 27 1 0
BITMAP
03E000
07F000
07F800
0F3800
003800
00F000
01E000
000000
000000
03F000
0FFC00
1FFE00
3F3F00
7C0F00
780F00
780F80
FFFF80
FFFF80
FFFF80
F80000
780000
780F80
7C1F00
3F7F00
3FFE00
1FFC00
07F800
ENDCHAR
STARTCHAR 1EBC
ENCODING 7868
SWIDTH 540 0
DWIDTH 18 0
BBX 15 31 2 0
BITMAP
0438
1FB8
3FF8
3BF0
38E0
0000
0000
0000
FFFE
FFFE
FFFE
FFFE
F800
F800
F800
F800
F800
FFFC
FFFC
FFFC
FFFC
F800
F800
F800
F800
F800
F800
FFFE
FFFE
FFFE
FFFE
ENDCHAR
STARTCHAR 1EBD
ENCODING 7869
SWIDTH 570 0
DWIDTH 19 0
BBX 17 25 1 0
BITMAP
070C00
0FFC00
0FFC00
1CF800
1C0000
000000
000000
03F000
0FFC00
1FFE00
3F3F00
7C0F00
780F00
780F80
FFFF80
FFFF80
FFFF80
F80000
780000
780F80
7C1F00
3F7F00
3FFE00
1FFC00
07F800
ENDCHAR
STARTCHAR 1EBE
ENCODING 7870
SWIDTH 540 0
DWIDTH 18 0
BBX 19 36 2 0
BITMAP
0001E0
0003E0
0003C0
000780
000780
03CF00
07C000
0FE000
1EF000
3C7800
783C00
000000
000000
FFFE00
FFFE00
FFFE00
FFFE00
F80000
F80000
F80000
F80000
F80000
FFFC00
FFFC00
FFFC00
FFFC00
F80000
F80000
F80000
F80000
F80000
F80000
FFFE00
FFFE00
FFFE00
FFFE00
ENDCHAR
STARTCHAR 1EBF
ENCODING 7871
SWIDTH 570 0
DWIDTH 19 0
BBX 21 31 1 0
BITMAP
000078
0000F0
0001F0
0001E0
0003C0
0003C0
01E780
03F000
07F800
0F7C00
1E3E00
000000
000000
03F000
0FFC00
1FFE00
3F3F00
7C0F00
780F00
780F80
FFFF80
FFFF80
FFFF80
F80000
780000
780F80
7C1F00
3F7F00
3FFE00
1FFC00
07F800
ENDCHAR
STARTCHAR 1EC0
ENCODING 7872
SWIDTH 540 0
DWIDTH 18 0
BBX 16 36 2 0
BITMAP
0078
007C
003C
001E
001E
03CF
07C0
0FE0
1EF0
3C78
783C
0000
0000
FFFE
FFFE
FFFE
FFFE
F800
F800
F800
F800
F800
FFFC
FFFC
FFFC
FFFC
F800
F800
F800
F800
F800
F800
FFFE
FFFE
FFFE
FFFE
ENDCHAR
STARTCHAR 1EC1
ENCODING 7873
SWIDTH 570 0
DWIDTH 19 0
BBX 17 31 1 0
BITMAP
007C00
003C00
001E00
001F00
000F00
000780
01E780
03F000
07F800
0F7C00
1E3E00
000000
000000
03F000
0FFC00
1FFE00
3F3F00
7C0F00
780F00
780F80
FFFF80
FFFF80
FFFF80
F80000
780000
780F80
7C1F00
3F7F00
3FFE00
1FFC00
07F800
ENDCHAR
STARTCHAR 1EC2
ENCODING 7874
SWIDTH 540 0
DWIDTH 18 0
BBX 18 37 2 0
BITMAP
001F00
003F80
003FC0
0079C0
0001C0
000780
03CF00
07C000
0FE000
1EF000
3C7800
783C00
000000
000000
FFFE00
FFFE00
FFFE00
FFFE00
F80000
F80000
F80000
F80000
F80000
FFFC00
FFFC00
FFFC00
FFFC00
F80000
F80000
F80000
F80000
F80000
F80000
FFFE00
FFFE00
FFFE00
FFFE00
ENDCHAR
STARTCHAR 1EC3
ENCODING 7875
SWIDTH 570 0
DWIDTH 19 0
BBX 19 31 1 0
BITMAP
000FC0
001FE0
001CE0
0000E0
0000E0
0003C0
01E780
03F000
07F800
0F7C00
1E3E00
000000
000000
03F000
0FFC00
1FFE00
3F3F00
7C0F00
780F00
780F80
FFFF80
FFFF80
FFFF80
F80000
780000
780F80
7C1F00
3F7F00
3FFE00
1FFC00
07F800
ENDCHAR
STARTCHAR 1EC4
ENCODING 7876
SWIDTH 540 0
DWIDTH 18 0
BBX 15 36 2 0
BITMAP
1F38
1FF8
3BF0
38E0
0000
0380
07C0
0FE0
1EF0
3C78
783C
0000
0000
FFFE
FFFE
FFFE
FFFE
F800
F800
F800
F800
F800
FFFC
FFFC
FFFC
FFFC
F800
F800
F800
F800
F800
F800
FFFE
FFFE
FFFE
FFFE
ENDCHAR
STARTCHAR 1EC5
ENCODING 7877
SWIDTH 570 0
DWIDTH 19 0
BBX 17 31 1 0
BITMAP
030C00
0FDC00
0FFC00
1CF800
1C2000
000000
01E000
03F000
07F800
0F7C00
1E3E00
000000
000000
03F000
0FFC00
1FFE00
3F3F00
7C0F00
780F00
780F80
FFFF80
FFFF80
FFFF80
F80000
780000
780F80
7C1F00
3F7F00
3FFE00
1FFC00
07F800
ENDCHAR
STARTCHAR 1EC6
ENCODING 7878
SWIDTH 540 0
DWIDTH 18 0
BBX 15 39 2 -8
BITMAP
03C0
07C0
0FE0
1EF0
3C78
783C
0000
0000
FFFE
FFFE
FFFE
FFFE
F800
F800
F800
F800
F800
FFFC
FFFC
FFFC
FFFC
F800
F800
F800
F800
F800
F800
FFFE
FFFE
FFFE
FFFE
0000
0000
0000
0180
07C0
07C0
07C0
0380
ENDCHAR
STARTCHAR 1EC7
ENCODING 7879
SWIDTH 570 0
DWIDTH 19 0
BBX 17 33 1 -8
BITMAP
01E000
03F000
07F800
0F7C00
1E3E00
000000
000000
03F000
0FFC00
1FFE00
3F3F00
7C0F00
780F00
780F80
FFFF80
FFFF80
FFFF80
F80000
780000
780F80
7C1F00
3F7F00
3FFE00
1FFC00
07F800
000000
000000
000000
00C000
01E000
03E000
01E000
01C000
ENDCHAR
STARTCHAR 1EC8
ENCODING 7880
SWIDTH 240 0
DWIDTH 8 0
BBX 9 33 0 0
BITMAP
1C00
7F00
FF00
E380
0780
0F00
1E00
0000
0000
0000
3E00
3E00
3E00
3E00
3E00
3E00
3E00
3E00
3E00
3E00
3E00
3E00
3E00
3E00
3E00
3E00
3E00
3E00
3E00
3E00
3E00
3E00
3E00
ENDCHAR
STARTCHAR 1EC9
ENCODING 7881
SWIDTH 270 0
DWIDTH 9 0
BBX 9 27 0 0
BITMAP
3E00
7F00
7F80
F380
0380
0F00
1E00
0000
0000
3E00
3E00
3E00
3E00
3E00
3E00
3E00
3E00
3E00
3E00
3E00
3E00
3E00
3E00
3E00
3E00
3E00
3E00
ENDCHAR
STARTCHAR 1ECA
ENCODING 7882
SWIDTH 240 0
DWIDTH 8 0
BBX 5 31 2 -8
BITMAP
F8
F8
F8
F8
F8
F8
F8
F8
F8
F8
F8
F8
F8
F8
F8
F8
F8
F8
F8
F8
F8
F8
F8
00
00
00
70
F8
F8
F8
70
ENDCHAR
STARTCHAR 1ECB
ENCODING 7883
SWIDTH 270 0
DWIDTH 9 0
BBX 5 34 2 -8
BITMAP
30
F8
F8
F8
78
00
00
00
F8
F8
F8
F8
F8
F8
F8
F8
F8
F8
F8
F8
F8
F8
F8
F8
F8
F8
00
00
00
30
78
F8
F8
70
ENDCHAR
STARTCHAR 1ECC
ENCODING 7884
SWIDTH 720 0
DWIDTH 24 0
BBX 22 32 1 -8
BITMAP
00F800
03FF00
0FFFC0
1FFFE0
1FCFF0
3F03F0
7E01F8
7C00F8
7C00F8
7C00F8
F8007C
F8007C
F8007C
F8007C
F8007C
7C00F8
7C00F8
7E00F8
3E01F0
3F03F0
1FFFE0
0FFFC0
07FF80
01FE00
000000
000000
000000
003000
007800
007C00
007800
007800
ENDCHAR
STARTCHAR 1ECD
ENCODING 7885
SWIDTH 570 0
DWIDTH 19 0
BBX 17 26 1 -8
BITMAP
03F000
0FFC00
1FFE00
3FFF00
7E1F00
7C0F80
780F80
F80780
F80780
F80780
F80780
780F80
7C0F80
7C1F00
3FFF00
3FFE00
1FFC00
07F800
000000
000000
000000
00C000
01E000
03E000
03E000
01C000
ENDCHAR
STARTCHAR 1ECE
ENCODING 7886
SWIDTH 720 0
DWIDTH 24 0
BBX 22 33 1 0
BITMAP
007800
00FC00
01FE00
01CE00
000E00
001E00
003800
000000
000000
00F800
03FF00
0FFFC0
1FFFE0
1FCFF0
3F03F0
7E01F8
7C00F8
7C00F8
7C00F8
F8007C
F8007C
F8007C
F8007C
F8007C
7C00F8
7C00F8
7E00F8
3E01F0
3F03F0
1FFFE0
0FFFC0
07FF80
01FE00
ENDCHAR
STARTCHAR 1ECF
ENCODING 7887
SWIDTH 570 0
DWIDTH 19 0
BBX 17 27 1 0
BITMAP
03E000
07F000
07F800
0F3800
003800
00F000
01E000
000000
000000
03F000
0FFC00
1FFE00
3FFF00
7E1F00
7C0F80
780F80
F80780
F80780
F80780
F80780
780F80
7C0F80
7C1F00
3FFF00
3FFE00
1FFC00
07F800
ENDCHAR
STARTCHAR 1ED0
ENCODING 7888
SWIDTH 720 0
DWIDTH 24 0
BBX 23 36 1 0
BITMAP
00003E
00003C
00007C
000078
0000F0
0078F0
00FC00
01FE00
03FF00
03CF80
0787C0
000000
00F800
03FF00
0FFFC0
1FFFE0
1FCFF0
3F03F0
7E01F8
7C00F8
7C00F8
7C00F8
F8007C
F8007C
F8007C
F8007C
F8007C
7C00F8
7C00F8
7E00F8
3E01F0
3F03F0
1FFFE0
0FFFC0
07FF80
01FE00
ENDCHAR
STARTCHAR 1ED1
ENCODING 7889
SWIDTH 570 0
DWIDTH 19 0
BBX 21 31 1 0
BITMAP
0000F8
0000F0
0001F0
0001E0
0003C0
0003C0
01E780
03F000
07F800
0F7C00
1E3E00
000000
000000
03F000
0FFC00
1FFE00
3FFF00
7E1F00
7C0F80
780F80
F80780
F80780
F80780
F80780
780F80
7C0F80
7C1F00
3FFF00
3FFE00
1FFC00
07F800
ENDCHAR
STARTCHAR 1ED2
ENCODING 7890
SWIDTH 720 0
DWIDTH 24 0
BBX 22 36 1 0
BITMAP
000F80
000780
0007C0
0003C0
0001E0
0079E0
00FC00
01FE00
03EF00
03CF80
0787C0
000000
00F800
03FF00
0FFFC0
1FFFE0
1FCFF0
3F03F0
7E01F8
7C00F8
7C00F8
7C00F8
F8007C
F8007C
F8007C
F8007C
F8007C
7C00F8
7C00F8
7E00F8
3E01F0
3F03F0
1FFFE0
0FFFC0
07FF80
01FE00
ENDCHAR
STARTCHAR 1ED3
ENCODING 7891
SWIDTH 570 0
DWIDTH 19 0
BBX 17 31 1 0
BITMAP
007C00
003C00
001E00
001F00
000F00
000780
01E780
03F000
07F800
0F7C00
1E3E00
000000
000000
03F000
0FFC00
1FFE00
3FFF00
7E1F00
7C0F80
780F80
F80780
F80780
F80780
F80780
780F80
7C0F80
7C1F00
3FFF00
3FFE00
1FFC00
07F800
ENDCHAR
STARTCHAR 1ED4
ENCODING 7892
SWIDTH 720 0
DWIDTH 24 0
BBX 22 37 1 0
BITMAP
0001F0
0003F8
0007F8
00073C
000038
000070
0078E0
00FC00
01FE00
03FF00
03CF80
0787C0
000000
00F800
03FF00
0FFFC0
1FFFE0
1FCFF0
3F03F0
7E01F8
7C00F8
7C00F8
7C00F8
F8007C
F8007C
F8007C
F8007C
F8007C
7C00F8
7C00F8
7E00F8
3E01F0
3F03F0
1FFFE0
0FFFC0
07FF80
01FE00
ENDCHAR
STARTCHAR 1ED5
ENCODING 7893
SWIDTH 570 0
DWIDTH 19 0
BBX 19 31 1 0
BITMAP
000FC0
001FE0
001CE0
0000E0
0000E0
0003C0
01E780
03F000
07F800
0F7C00
1E3E00
000000
000000
03F000
0FFC00
1FFE00
3FFF00
7E1F00
7C0F80
780F80
F80780
F80780
F80780
F80780
780F80
7C0F80
7C1F00
3FFF00
3FFE00
1FFC00
07F800
ENDCHAR
STARTCHAR 1ED6
ENCODING 7894
SWIDTH 720 0
DWIDTH 24 0
BBX 22 36 1 0
BITMAP
01F300
03FF00
03FF00
030E00
000000
007800
00FC00
01FE00
03FF00
07CF80
0787C0
000000
00F800
03FF00
0FFFC0
1FFFE0
1FCFF0
3F03F0
7E01F8
7C00F8
7C00F8
7C00F8
F8007C
F8007C
F8007C
F8007C
F8007C
7C00F8
7C00F8
7E00F8
3E01F0
3F03F0
1FFFE0
0FFFC0
07FF80
01FE00
ENDCHAR
STARTCHAR 1ED7
ENCODING 7895
SWIDTH 570 0
DWIDTH 19 0
BBX 17 31 1 0
BITMAP
030C00
0FDC00
0FFC00
1CF800
1C2000
000000
01E000
03F000
07F800
0F7C00
1E3E00
000000
000000
03F000
0FFC00
1FFE00
3FFF00
7E1F00
7C0F80
780F80
F80780
F80780
F80780
F80780
780F80
7C0F80
7C1F00
3FFF00
3FFE00
1FFC00
07F800
ENDCHAR
STARTCHAR 1ED8
ENCODING 7896
SWIDTH 720 0
DWIDTH 24 0
BBX 22 39 1 -8
BITMAP
007800
00FC00
01FE00
03FF00
03CF80
0787C0
000000
00F800
03FF00
0FFFC0
1FFFE0
1FCFF0
3F03F0
7E01F8
7C00F8
7C00F8
7C00F8
F8007C
F8007C
F8007C
F8007C
F8007C
7C00F8
7C00F8
7E00F8
3E01F0
3F03F0
1FFFE0
0FFFC0
07FF80
01FE00
000000
000000
000000
003000
007800
007C00
007800
007800
ENDCHAR
STARTCHAR 1ED9
ENCODING 7897
SWIDTH 570 0
DWIDTH 19 0
BBX 17 33 1 -8
BITMAP
01E000
03F000
07F800
0F7C00
1E3E00
000000
000000
03F000
0FFC00
1FFE00
3FFF00
7E1F00
7C0F80
780F80
F80780
F80780
F80780
F80780
780F80
7C0F80
7C1F00
3FFF00
3FFE00
1FFC00
07F800
000000
000000
000000
00C000
01E000
03E000
03E000
01C000
ENDCHAR
STARTCHAR 1EDA
ENCODING 7898
SWIDTH 720 0
DWIDTH 24 0
BBX 22 32 1 0
BITMAP
000F80
000F00
001E00
001E00
003C00
003838
000038
000038
00F8F8
03FFF0
0FFFC0
1FFFE0
1FCFF0
3F03F0
7E01F8
7C00F8
7C00F8
7C00F8
F8007C
F8007C
F8007C
F8007C
F8007C
7C00F8
7C00F8
7E00F8
3E01F0
3F03F0
1FFFE0
0FFFC0
07FF80
01FE00
ENDCHAR
STARTCHAR 1EDB
ENCODING 7899
SWIDTH 600 0
DWIDTH 20 0
BBX 18 27 1 0
BITMAP
003E00
003C00
007C00
007800
00F000
00F000
01E1C0
0001C0
0001C0
03FFC0
0FFF80
1FFE00
3FFF00
7E1F00
7C0F80
780F80
F80780
F80780
F80780
F80780
780F80
7C0F80
7C1F00
3FFF00
3FFE00
1FFC00
07F800
ENDCHAR
STARTCHAR 1EDC
ENCODING 7900
SWIDTH 720 0
DWIDTH 24 0
BBX 22 32 1 0
BITMAP
07C000
03C000
01E000
01E000
00F000
007038
000038
000038
00F8F8
03FFF0
0FFFC0
1FFFE0
1FCFF0
3F03F0
7E01F8
7C00F8
7C00F8
7C00F8
F8007C
F8007C
F8007C
F8007C
F8007C
7C00F8
7C00F8
7E00F8
3E01F0
3F03F0
1FFFE0
0FFFC0
07FF80
01FE00
ENDCHAR
STARTCHAR 1EDD
ENCODING 7901
SWIDTH 600 0
DWIDTH 20 0
BBX 18 27 1 0
BITMAP
1E0000
1F0000
0F0000
078000
078000
03C000
01C1C0
0001C0
0001C0
03FFC0
0FFF80
1FFE00
3FFF00
7E1F00
7C0F80
780F80
F80780
F80780
F80780
F80780
780F80
7C0F80
7C1F00
3FFF00
3FFE00
1FFC00
07F800
ENDCHAR
STARTCHAR 1EDE
ENCODING 7902
SWIDTH 720 0
DWIDTH 24 0
BBX 22 33 1 0
BITMAP
007800
00FC00
01FE00
01CE00
000E00
001E00
003838
000038
000038
00F8F8
03FFF0
0FFFC0
1FFFE0
1FCFF0
3F03F0
7E01F8
7C00F8
7C00F8
7C00F8
F8007C
F8007C
F8007C
F8007C
F8007C
7C00F8
7C00F8
7E00F8
3E01F0
3F03F0
1FFFE0
0FFFC0
07FF80
01FE00
ENDCHAR
STARTCHAR 1EDF
ENCODING 7903
SWIDTH 600 0
DWIDTH 20 0
BBX 18 27 1 0
BITMAP
03E000
07F000
07F800
0F3800
003800
00F000
01E1C0
0001C0
0001C0
03FFC0
0FFF80
1FFE00
3FFF00
7E1F00
7C0F80
780F80
F80780
F80780
F80780
F80780
780F80
7C0F80
7C1F00
3FFF00
3FFE00
1FFC00
07F800
ENDCHAR
STARTCHAR 1EE0
ENCODING 7904
SWIDTH 720 0
DWIDTH 24 0
BBX 22 31 1 0
BITMAP
00C300
03F300
03FF00
03BF00
030E38
000038
000038
00F8F8
03FFF0
0FFFC0
1FFFE0
1FCFF0
3F03F0
7E01F8
7C00F8
7C00F8
7C00F8
F8007C
F8007C
F8007C
F8007C
F8007C
7C00F8
7C00F8
7E00F8
3E01F0
3F03F0
1FFFE0
0FFFC0
07FF80
01FE00
ENDCHAR
STARTCHAR 1EE1
ENCODING 7905
SWIDTH 600 0
DWIDTH 20 0
BBX 18 25 1 0
BITMAP
070C00
0FFC00
0FFC00
1CF800
1C01C0
0001C0
0001C0
03FFC0
0FFF80
1FFE00
3FFF00
7E1F00
7C0F80
780F80
F80780
F80780
F80780
F80780
780F80
7C0F80
7C1F00
3FFF00
3FFE00
1FFC00
07F800
ENDCHAR
STARTCHAR 1EE2
ENCODING 7906
SWIDTH 720 0
DWIDTH 24 0
BBX 22 35 1 -8
BITMAP
000038
000038
000038
00F8F8
03FFF0
0FFFC0
1FFFE0
1FCFF0
3F03F0
7E01F8
7C00F8
7C00F8
7C00F8
F8007C
F8007C
F8007C
F8007C
F8007C
7C00F8
7C00F8
7E00F8
3E01F0
3F03F0
1FFFE0
0FFFC0
07FF80
01FE00
000000
000000
000000
003000
007800
007C00
007800
007800
ENDCHAR
STARTCHAR 1EE3
ENCODING 7907
SWIDTH 600 0
DWIDTH 20 0
BBX 18 29 1 -8
BITMAP
0001C0
0001C0
0001C0
03FFC0
0FFF80
1FFE00
3FFF00
7E1F00
7C0F80
780F80
F80780
F80780
F80780
F80780
780F80
7C0F80
7C1F00
3FFF00
3FFE00
1FFC00
07F800
000000
000000
000000
00C000
01E000
03E000
03E000
01C000
ENDCHAR
STARTCHAR 1EE4
ENCODING 7908
SWIDTH 660 0
DWIDTH 22 0
BBX 19 31 2 -8
BITMAP
F003E0
F003E0
F003E0
F003E0
F003E0
F003E0
F003E0
F003E0
F003E0
F003E0
F003E0
F003E0
F003E0
F003E0
F803E0
F803E0
F803E0
FC07C0
7E0FC0
7FFF80
3FFF80
1FFE00
07FC00
000000
000000
000000
00E000
01F000
01F000
01F000
00E000
ENDCHAR
STARTCHAR 1EE5
ENCODING 7909
SWIDTH 570 0
DWIDTH 19 0
BBX 16 26 2 -8
BITMAP
F81F
F81F
F81F
F81F
F81F
F81F
F81F
F81F
F81F
F81F
F81F
F81F
F81F
F83F
FFFF
7FFF
7FDF
1F9F
0000
0000
0000
0180
03C0
07C0
07C0
0380
ENDCHAR
STARTCHAR 1EE6
ENCODING 7910
SWIDTH 660 0
DWIDTH 22 0
BBX 19 33 2 0
BITMAP
00E000
03F800
07F800
071C00
003800
007800
00F000
000000
000000
000000
F003E0
F003E0
F003E0
F003E0
F003E0
F003E0
F003E0
F003E0
F003E0
F003E0
F003E0
F003E0
F003E0
F003E0
F803E0
F803E0
F803E0
FC07C0
7E0FC0
7FFF80
3FFF80
1FFE00
07FC00
ENDCHAR
STARTCHAR 1EE7
ENCODING 7911
SWIDTH 570 0
DWIDTH 19 0
BBX 16 27 2 0
BITMAP
07C0
0FE0
1FF0
1E70
00F0
01E0
03C0
0000
0000
F81F
F81F
F81F
F81F
F81F
F81F
F81F
F81F
F81F
F81F
F81F
F81F
F81F
F83F
FFFF
7FFF
7FDF
1F9F
ENDCHAR
STARTCHAR 1EE8
ENCODING 7912
SWIDTH 660 0
DWIDTH 22 0
BBX 23 32 2 0
BITMAP
001E00
003C00
007C00
007800
00F000
00F01E
00001E
00001E
00003E
F003FC
F003F0
F003E0
F003E0
F003E0
F003E0
F003E0
F003E0
F003E0
F003E0
F003E0
F003E0
F003E0
F003E0
F803E0
F803E0
F803E0
FC07C0
7E0FC0
7FFF80
3FFF80
1FFE00
07FC00
ENDCHAR
STARTCHAR 1EE9
ENCODING 7913
SWIDTH 570 0
DWIDTH 19 0
BBX 20 27 2 0
BITMAP
007C00
007800
00F000
00F000
01E000
01C000
03C070
000070
0000F0
F81FE0
F81FE0
F81F00
F81F00
F81F00
F81F00
F81F00
F81F00
F81F00
F81F00
F81F00
F81F00
F81F00
F83F00
FFFF00
7FFF00
7FDF00
1F9F00
ENDCHAR
STARTCHAR 1EEA
ENCODING 7914
SWIDTH 660 0
DWIDTH 22 0
BBX 23 32 2 0
BITMAP
0F0000
0F8000
078000
03C000
03C000
01E01E
00001E
00001E
00003E
F003FC
F003F0
F003E0
F003E0
F003E0
F003E0
F003E0
F003E0
F003E0
F003E0
F003E0
F003E0
F003E0
F003E0
F803E0
F803E0
F803E0
FC07C0
7E0FC0
7FFF80
3FFF80
1FFE00
07FC00
ENDCHAR
STARTCHAR 1EEB
ENCODING 7915
SWIDTH 570 0
DWIDTH 19 0
BBX 20 27 2 0
BITMAP
3C0000
3E0000
1E0000
1F0000
0F0000
078000
078070
000070
0000F0
F81FE0
F81FE0
F81F00
F81F00
F81F00
F81F00
F81F00
F81F00
F81F00
F81F00
F81F00
F81F00
F81F00
F83F00
FFFF00
7FFF00
7FDF00
1F9F00
ENDCHAR
STARTCHAR 1EEC
ENCODING 7916
SWIDTH 660 0
DWIDTH 22 0
BBX 23 33 2 0
BITMAP
00E000
03F800
07F800
071C00
003800
007800
00F01E
00001E
00001E
00003E
F003FC
F003F0
F003E0
F003E0
F003E0
F003E0
F003E0
F003E0
F003E0
F003E0
F003E0
F003E0
F003E0
F003E0
F803E0
F803E0
F803E0
FC07C0
7E0FC0
7FFF80
3FFF80
1FFE00
07FC00
ENDCHAR
STARTCHAR 1EED
ENCODING 7917
SWIDTH 570 0
DWIDTH 19 0
BBX 20 27 2 0
BITMAP
07C000
0FE000
1FF000
1E7000
00F000
01E000
03C070
000070
0000F0
F81FE0
F81FE0
F81F00
F81F00
F81F00
F81F00
F81F00
F81F00
F81F00
F81F00
F81F00
F81F00
F81F00
F83F00
FFFF00
7FFF00
7FDF00
1F9F00
ENDCHAR
STARTCHAR 1EEE
ENCODING 7918
SWIDTH 660 0
DWIDTH 22 0
BBX 23 31 2 0
BITMAP
030E00
07CE00
0FFC00
0EFC00
0C381E
00001E
00001E
00003E
F003FC
F003F0
F003E0
F003E0
F003E0
F003E0
F003E0
F003E0
F003E0
F003E0
F003E0
F003E0
F003E0
F003E0
F803E0
F803E0
F803E0
FC07C0
7E0FC0
7FFF80
3FFF80
1FFE00
07FC00
ENDCHAR
STARTCHAR 1EEF
ENCODING 7919
SWIDTH 600 0
DWIDTH 20 0
BBX 20 25 2 0
BITMAP
0F1800
1FF800
1FF800
19F800
180070
000070
0000F0
F81FE0
F81FE0
F81F00
F81F00
F81F00
F81F00
F81F00
F81F00
F81F00
F81F00
F81F00
F81F00
F81F00
F83F00
FFFF00
7FFF00
7FDF00
1F9F00
ENDCHAR
STARTCHAR 1EF0
ENCODING 7920
SWIDTH 660 0
DWIDTH 22 0
BBX 23 35 2 -8
BITMAP
00001E
00001E
00001E
00003E
F003FC
F003F0
F003E0
F003E0
F003E0
F003E0
F003E0
F003E0
F003E0
F003E0
F003E0
F003E0
F003E0
F003E0
F803E0
F803E0
F803E0
FC07C0
7E0FC0
7FFF80
3FFF80
1FFE00
07FC00
000000
000000
000000
00E000
01F000
01F000
01F000
00E000
ENDCHAR
STARTCHAR 1EF1
ENCODING 7921
SWIDTH 570 0
DWIDTH 19 0
BBX 20 29 2 -8
BITMAP
000070
000070
0000F0
F81FE0
F81FE0
F81F00
F81F00
F81F00
F81F00
F81F00
F81F00
F81F00
F81F00
F81F00
F81F00
F81F00
F83F00
FFFF00
7FFF00
7FDF00
1F9F00
000000
000000
000000
018000
03C000
07C000
07C000
038000
ENDCHAR
STARTCHAR 1EF2
ENCODING 7922
SWIDTH 630 0
DWIDTH 21 0
BBX 19 32 1 0
BITMAP
0F8000
078000
07C000
03C000
01E000
01E000
000000
000000
000000
F803E0
7C03E0
7C03C0
3C07C0
3E0780
1E0F80
1F0F00
0F1F00
0F9E00
07BE00
07FC00
03FC00
03F800
01F800
01F000
01F000
01F000
01F000
01F000
01F000
01F000
01F000
01F000
ENDCHAR
STARTCHAR 1EF3
ENCODING 7923
SWIDTH 540 0
DWIDTH 18 0
BBX 17 34 1 -7
BITMAP
3E0000
1E0000
1F0000
0F0000
078000
078000
03C000
000000
000000
F00F80
F80F80
F80F00
781F00
7C1E00
3C1E00
3C3E00
3E3C00
1E3C00
1E7C00
1F7800
0F7800
0FF000
07F000
07F000
07E000
03E000
03C000
03C000
07C000
078000
0F8000
FF0000
FF0000
FC0000
ENDCHAR
STARTCHAR 1EF4
ENCODING 7924
SWIDTH 630 0
DWIDTH 21 0
BBX 19 31 1 -8
BITMAP
F803E0
7C03E0
7C03C0
3C07C0
3E0780
1E0F80
1F0F00
0F1F00
0F9E00
07BE00
07FC00
03FC00
03F800
01F800
01F000
01F000
01F000
01F000
01F000
01F000
01F000
01F000
01F000
000000
000000
000000
006000
00F000
01F000
01F000
00E000
ENDCHAR
STARTCHAR 1EF5
ENCODING 7925
SWIDTH 540 0
DWIDTH 18 0
BBX 17 26 1 -8
BITMAP
F00F80
F80F80
F80F00
781F00
7C1E00
3C1E00
3C3E00
3E3C00
1E3C00
1E7C00
1F7800
0F7800
0FF000
07F000
07F000
07E000
03E000
03C000
03C000
07C000
078000
0F8600
FF0F00
FF0F00
FC0F00
000F00
ENDCHAR
STARTCHAR 1EF6
ENCODING 7926
SWIDTH 630 0
DWIDTH 21 0
BBX 19 33 1 0
BITMAP
00E000
03F800
03FC00
079C00
001C00
003800
00F000
000000
000000
000000
F803E0
7C03E0
7C03C0
3C07C0
3E0780
1E0F80
1F0F00
0F1F00
0F9E00
07BE00
07FC00
03FC00
03F800
01F800
01F000
01F000
01F000
01F000
01F000
01F000
01F000
01F000
01F000
ENDCHAR
STARTCHAR 1EF7
ENCODING 7927
SWIDTH 540 0
DWIDTH 18 0
BBX 17 34 1 -7
BITMAP
03E000
07F000
0FF000
0E7000
007000
00E000
01C000
000000
000000
F00F80
F80F80
F80F00
781F00
7C1E00
3C1E00
3C3E00
3E3C00
1E3C00
1E7C00
1F7800
0F7800
0FF000
07F000
07F000
07E000
03E000
03C000
03C000
07C000
078000
0F8000
FF0000
FF0000
FC0000
ENDCHAR
STARTCHAR 1EF8
ENCODING 7928
SWIDTH 630 0
DWIDTH 21 0
BBX 19 31 1 0
BITMAP
018600
07EE00
07FE00
0EFC00
0E1800
000000
000000
000000
F803E0
7C03E0
7C03C0
3C07C0
3E0780
1E0F80
1F0F00
0F1F00
0F9E00
07BE00
07FC00
03FC00
03F800
01F800
01F000
01F000
01F000
01F000
01F000
01F000
01F000
01F000
01F000
ENDCHAR
STARTCHAR 1EF9
ENCODING 7929
SWIDTH 540 0
DWIDTH 18 0
BBX 17 32 1 -7
BITMAP
071C00
0FFC00
1FF800
19F800
180000
000000
000000
F00F80
F80F80
F80F00
781F00
7C1E00
3C1E00
3C3E00
3E3C00
1E3C00
1E7C00
1F7800
0F7800
0FF000
07F000
07F000
07E000
03E000
03C000
03C000
07C000
078000
0F8000
FF0000
FF0000
FC0000
ENDCHAR
STARTCHAR 2013
ENCODING 8211
SWIDTH 630 0
DWIDTH 21 0
BBX 15 3 3 9
BITMAP
FFFE
FFFE
FFFE
ENDCHAR
STARTCHAR 2014
ENCODING 8212
SWIDTH 750 0
DWIDTH 25 0
BBX 19 3 3 9
BITMAP
FFFFE0
FFFFE0
FFFFE0
ENDCHAR
STARTCHAR 2018
ENCODING 8216
SWIDTH 270 0
DWIDTH 9 0
BBX 5 10 2 16
BITMAP
10
70
C0
C0
C0
F0
F8
F8
F8
70
ENDCHAR
STARTCHAR 2019
ENCODING 8217
SWIDTH 270 0
DWIDTH 9 0
BBX 6 10 2 16
BITMAP
38
7C
FC
7C
7C
0C
0C
18
38
20
ENDCHAR
STARTCHAR 201A
ENCODING 8218
SWIDTH 300 0
DWIDTH 10 0
BBX 6 10 2 -6
BITMAP
78
FC
FC
7C
1C
0C
0C
18
38
20
ENDCHAR
STARTCHAR 201C
ENCODING 8220
SWIDTH 510 0
DWIDTH 17 0
BBX 14 10 2 16
BITMAP
1010
7070
E060
C0C0
C0C0
F0F8
F8F8
F8FC
F8F8
7070
ENDCHAR
STARTCHAR 201D
ENCODING 8221
SWIDTH 540 0
DWIDTH 18 0
BBX 14 10 2 16
BITMAP
7878
7C7C
FC7C
7C7C
1C1C
0C0C
0C0C
1818
3038
2020
ENDCHAR
STARTCHAR 201E
ENCODING 8222
SWIDTH 540 0
DWIDTH 18 0
BBX 14 10 2 -6
BITMAP
7878
FC7C
FC7C
7C7C
1C1C
0C0C
0C0C
1818
3030
2020
ENDCHAR
STARTCHAR 2020
ENCODING 8224
SWIDTH 570 0
DWIDTH 19 0
BBX 14 31 3 -8
BITMAP
0780
0780
0780
0780
0780
FFFC
FFFC
FFFC
FFFC
0780
0780
0780
0780
0780
0780
0780
0780
0780
0780
0780
0780
0780
0780
0780
0780
0780
0780
0780
0780
0780
0780
ENDCHAR
STARTCHAR 2021
ENCODING 8225
SWIDTH 570 0
DWIDTH 19 0
BBX 14 31 3 -8
BITMAP
0780
0780
0780
0780
0780
FFFC
FFFC
FFFC
FFFC
0780
0780
0780
0780
0780
0780
0780
0780
0780
0780
0780
0780
FFFC
FFFC
FFFC
FFFC
0780
0780
0780
0780
0780
0780
ENDCHAR
STARTCHAR 2022
ENCODING 8226
SWIDTH 480 0
DWIDTH 16 0
BBX 8 8 2 8
BITMAP
3C
7E
FF
FF
FF
FE
7E
18
ENDCHAR
STARTCHAR 2026
ENCODING 8230
SWIDTH 870 0
DWIDTH 29 0
BBX 23 5 3 0
BITMAP
70381C
F87C3E
F87C3E
F87C3E
70383C
ENDCHAR
STARTCHAR 2030
ENCODING 8240
SWIDTH 1140 0
DWIDTH 38 0
BBX 36 24 1 0
BITMAP
0C00000000
3F00F00000
7F81E00000
7381E00000
F383C00000
E383C00000
F387800000
7F87800000
7F0F000000
1E0F000000
001E000000
001E000000
003C000000
003C000000
0078000000
00787E07C0
00F0FE0FE0
00F0E71EF0
01E1E71C70
01E1E71C70
03C1E71C70
03C0E71EF0
0780FE0FE0
07007E07C0
ENDCHAR
STARTCHAR 2039
ENCODING 8249
SWIDTH 390 0
DWIDTH 13 0
BBX 11 15 1 3
BITMAP
01E0
03C0
0780
0F80
1F00
3E00
7C00
F800
7C00
3C00
1E00
0F00
0780
03C0
03E0
ENDCHAR
STARTCHAR 203A
ENCODING 8250
SWIDTH 390 0
DWIDTH 13 0
BBX 11 15 1 3
BITMAP
F800
7C00
3E00
1E00
0F00
0780
03C0
03E0
03C0
07C0
0F80
1F00
3E00
7C00
7800
ENDCHAR
STARTCHAR 2044
ENCODING 8260
SWIDTH 480 0
DWIDTH 16 0
BBX 18 23 -1 0
BITMAP
0003C0
000780
000F80
000F00
001E00
001E00
003C00
007C00
007800
00F000
00F000
01E000
03E000
03C000
078000
078000
0F0000
1F0000
1E0000
3C0000
3C0000
780000
F80000
ENDCHAR
STARTCHAR 2070
ENCODING 8304
SWIDTH 330 0
DWIDTH 11 0
BBX 10 12 1 14
BITMAP
3F00
7F80
F380
E380
E3C0
E1C0
E1C0
E3C0
E380
F380
7F00
3F00
ENDCHAR
STARTCHAR 2074
ENCODING 8308
SWIDTH 330 0
DWIDTH 11 0
BBX 9 13 1 13
BITMAP
0F00
0F00
1F00
1F00
3700
7700
6700
C700
FF80
FF80
0700
0700
0700
ENDCHAR
STARTCHAR 2075
ENCODING 8309
SWIDTH 300 0
DWIDTH 10 0
BBX 9 13 1 13
BITMAP
FF00
FF00
FF00
E000
C000
DF00
FF00
E380
0380
E380
F780
7F00
3E00
ENDCHAR
STARTCHAR 2076
ENCODING 8310
SWIDTH 300 0
DWIDTH 10 0
BBX 9 13 1 13
BITMAP
0E00
1C00
3800
3000
7000
7E00
FF00
E380
C380
E380
E380
7F00
3E00
ENDCHAR
STARTCHAR 2077
ENCODING 8311
SWIDTH 300 0
DWIDTH 10 0
BBX 8 13 1 13
BITMAP
FF
FF
FF
03
07
06
0E
0C
1C
1C
38
38
70
ENDCHAR
STARTCHAR 2078
ENCODING 8312
SWIDTH 300 0
DWIDTH 10 0
BBX 9 13 1 13
BITMAP
0800
7F00
FF00
E380
E380
E700
7F00
7F00
E380
E380
E380
FF80
7F00
ENDCHAR
STARTCHAR 2079
ENCODING 8313
SWIDTH 300 0
DWIDTH 10 0
BBX 9 13 1 13
BITMAP
0800
7F00
FF00
E380
E380
E380
E380
7F00
3F00
0600
0E00
1C00
1C00
ENDCHAR
STARTCHAR 2080
ENCODING 8320
SWIDTH 330 0
DWIDTH 11 0
BBX 10 13 1 -9
BITMAP
3F00
7F80
F380
E380
E3C0
E1C0
E1C0
E3C0
E380
F380
7F80
3F00
0800
ENDCHAR
STARTCHAR 2081
ENCODING 8321
SWIDTH 270 0
DWIDTH 9 0
BBX 8 12 1 -8
BITMAP
38
78
F8
D8
98
18
18
18
18
18
FF
FF
ENDCHAR
STARTCHAR 2082
ENCODING 8322
SWIDTH 300 0
DWIDTH 10 0
BBX 8 13 1 -9
BITMAP
3E
7F
E7
C3
03
07
0E
1C
38
F0
FF
FF
FF
ENDCHAR
STARTCHAR 2083
ENCODING 8323
SWIDTH 300 0
DWIDTH 10 0
BBX 9 13 1 -9
BITMAP
7F00
7F80
E380
0380
0780
1F00
1F00
0380
0380
E380
FF80
7F00
0800
ENDCHAR
STARTCHAR 2084
ENCODING 8324
SWIDTH 330 0
DWIDTH 11 0
BBX 9 12 1 -8
BITMAP
0F00
1F00
1F00
3F00
3700
6700
E700
FF80
FF80
FF80
0700
0700
ENDCHAR
STARTCHAR 2085
ENCODING 8325
SWIDTH 300 0
DWIDTH 10 0
BBX 9 13 1 -9
BITMAP
FF00
FF00
E000
E000
DE00
FF00
E780
0380
0380
E780
FF00
7E00
0800
ENDCHAR
STARTCHAR 2086
ENCODING 8326
SWIDTH 300 0
DWIDTH 10 0
BBX 9 13 1 -9
BITMAP
1C00
1800
3800
7000
6E00
FF00
E380
E380
C380
E380
FF00
7E00
0800
ENDCHAR
STARTCHAR 2087
ENCODING 8327
SWIDTH 300 0
DWIDTH 10 0
BBX 8 12 1 -8
BITMAP
FF
FF
03
07
07
0E
0E
0C
1C
18
38
30
ENDCHAR
STARTCHAR 2088
ENCODING 8328
SWIDTH 300 0
DWIDTH 10 0
BBX 9 13 1 -9
BITMAP
7F00
FF00
E380
E380
E380
7F00
7F00
E380
E380
E380
FF80
7F00
1800
ENDCHAR
STARTCHAR 2089
ENCODING 8329
SWIDTH 300 0
DWIDTH 10 0
BBX 9 13 1 -9
BITMAP
3E00
7F00
E380
E380
E380
E380
7F80
3B00
0700
0E00
0C00
1C00
3800
ENDCHAR
STARTCHAR 20AB
ENCODING 8363
SWIDTH 600 0
DWIDTH 20 0
BBX 18 28 1 0
BITMAP
000F80
000F80
007FC0
007FC0
007FC0
000F80
000F80
1FCF80
3FEF80
7FFF80
7E7F80
FC1F80
F81F80
F80F80
F80F80
F80F80
F80F80
F81F80
7C3F80
7FFF80
3FEF80
1FCF80
030000
000000
000000
3FFF80
3FFF80
3FFF80
ENDCHAR
STARTCHAR 20AC
ENCODING 8364
SWIDTH 660 0
DWIDTH 22 0
BBX 22 23 0 0
BITMAP
007F00
01FFC0
03FFE0
07FFF0
0FC1F0
0F80F8
1F0078
1F007C
FFF800
FFF800
FFF800
1E0000
1E0000
FFF800
FFF800
1F007C
1F0078
0F80F8
0FC1F0
07FFF0
03FFE0
01FFC0
007F00
ENDCHAR
STARTCHAR 2122
ENCODING 8482
SWIDTH 390 0
DWIDTH 13 0
BBX 12 5 0 18
BITMAP
FBF0
33F0
32D0
32D0
3210
ENDCHAR
STARTCHAR 215B
ENCODING 8539
SWIDTH 900 0
DWIDTH 30 0
BBX 28 23 1 0
BITMAP
3C001E00
7C001E00
FC003C00
FC007800
9C007800
1C00F000
1C00F000
1C01E000
1C03C000
FF03C000
FF078000
000783C0
000F0FE0
001E0FF0
001E0E70
003C0E70
003C0FE0
007807E0
00F00E70
00F00E70
01E00E70
01E00FF0
03C007E0
ENDCHAR
STARTCHAR 215C
ENCODING 8540
SWIDTH 870 0
DWIDTH 29 0
BBX 28 23 1 1
BITMAP
3F001E00
7F803C00
73807C00
03807800
0F80F000
0F00F000
0F81E000
0383E000
F383C000
7F878000
7F078000
1C0F0780
001F0FE0
001E1FE0
003C1CE0
003C1CE0
00780FE0
00F80FC0
00F01CE0
01E01C70
01E01CF0
03C01FE0
07C00FC0
ENDCHAR
STARTCHAR 215D
ENCODING 8541
SWIDTH 900 0
DWIDTH 30 0
BBX 28 23 1 0
BITMAP
FF001E00
FF003C00
E0003C00
E4007800
FF007800
FF80F000
0381E000
E381E000
F783C000
7F03C000
3E078000
000F03C0
000F0FE0
001E0FF0
001E0E70
003C0E70
00780FE0
00780FE0
00F00E70
00F01C70
01E01E70
03E00FF0
03C007E0
ENDCHAR
STARTCHAR 215E
ENCODING 8542
SWIDTH 900 0
DWIDTH 30 0
BBX 28 23 1 0
BITMAP
FF801E00
FF803C00
FF807C00
07007800
0700F000
0E00F000
0E01E000
1C03E000
1C03C000
38078000
38078000
000F03C0
001F0FE0
001E0FF0
003C0E70
003C0E70
00780FE0
00F807E0
00F00E70
01E00E70
01E00E70
03C00FF0
07C007E0
ENDCHAR
STARTCHAR 2212
ENCODING 8722
SWIDTH 600 0
DWIDTH 20 0
BBX 14 4 3 8
BITMAP
FFFC
FFFC
FFFC
FFFC
ENDCHAR
STARTCHAR 2215
ENCODING 8725
SWIDTH 510 0
DWIDTH 17 0
BBX 16 23 1 0
BITMAP
001F
001E
003E
003C
007C
0078
00F8
00F0
01F0
01E0
03E0
03C0
07C0
0780
0F80
0F00
1F00
1E00
3E00
3C00
7C00
7800
F800
ENDCHAR
STARTCHAR 2248
ENCODING 8776
SWIDTH 570 0
DWIDTH 19 0
BBX 13 12 3 4
BITMAP
3E18
7FF8
FFF8
E3F0
0000
0000
0000
0000
3F38
7FF8
FFF0
E1E0
ENDCHAR
STARTCHAR 2260
ENCODING 8800
SWIDTH 720 0
DWIDTH 24 0
BBX 16 20 4 0
BITMAP
000F
001E
001E
003C
FFFF
FFFF
FFFF
FFFF
01E0
03E0
03C0
0780
FFFF
FFFF
FFFF
1E00
3E00
3C00
7800
7800
ENDCHAR
STARTCHAR 2264
ENCODING 8804
SWIDTH 600 0
DWIDTH 20 0
BBX 15 22 3 0
BITMAP
000C
003C
00FC
03FC
07F8
1FC0
7F00
7C00
7E00
3F80
0FE0
07FC
01FC
007C
001C
0004
0000
0000
0000
FFFE
FFFE
FFFE
ENDCHAR
STARTCHAR 2265
ENCODING 8805
SWIDTH 630 0
DWIDTH 21 0
BBX 15 22 3 0
BITMAP
6000
7800
7E00
7F80
1FE0
07F8
01FC
007C
00FC
03FC
0FF0
3FC0
7F00
7C00
7000
4000
0000
0000
0000
FFFE
FFFE
FFFE
ENDCHAR
ENDFONT
